<?xml version="1.0" encoding="utf-8"?>
<!-- Generator: Adobe Illustrator 25.2.3, SVG Export Plug-In . SVG Version: 6.00 Build 0)  -->
<svg version="1.1" id="Layer_1" xmlns="http://www.w3.org/2000/svg" xmlns:xlink="http://www.w3.org/1999/xlink" x="0px" y="0px"
	 width="32px" height="1658px" viewBox="0 0 32 1658" style="enable-background:new 0 0 32 1658;" xml:space="preserve">
<desc>Created with Sketch.</desc>
<g id="stx-sprite-drawing-tools-black">
	<g id="Text_Annotation" transform="translate(3.000000, 0.000000)">
		<path id="Combined-Shape" d="M17.3,9.4H14v9.4h-2.2V9.4H8.4V7.7h8.9V9.4z M0,26V0h26v26H0z M2.6,23.4h20.8V2.6H2.6V23.4z"/>
	</g>
	<g id="Average_Line" transform="translate(3.000000, 35.000000)">
		<polygon id="Combined-Shape_1_" points="1.3,8.4 22.4,8.4 24.7,8.4 24.7,0.5 26,0.5 26,8.4 26,11.4 26,19.5 24.7,19.5 24.7,11.4 
			1.3,11.4 1.3,19.5 0,19.5 0,11.4 0,8.4 0,0.5 1.3,0.5 		"/>
	</g>
	<g id="Callout" transform="translate(3.000000, 63.000000)">
		<path id="Fill-1" d="M20.8,0.9H5.2C2.3,0.9,0,3.2,0,6.1v8.5c0,2.9,2.3,5.2,5.2,5.2v7.1l7.8-7.1h7.8c2.9,0,5.2-2.3,5.2-5.2V6.1
			C26,3.2,23.7,0.9,20.8,0.9 M20.8,3.5c1.5,0,2.6,1.1,2.6,2.6v8.5c0,1.5-1.1,2.6-2.6,2.6H13h-1l-0.8,0.7L7.7,21v-1.2v-2.6H5.1
			c-1.5,0-2.6-1.1-2.6-2.6V6.1c0-1.5,1.1-2.6,2.6-2.6H20.8"/>
	</g>
	<g id="Channel" transform="translate(3.000000, 96.000000)">
		<path id="Combined-Shape_2_" d="M24.9,0L26,2.3L1.1,14.8L0,12.5L24.9,0z M0,23.7l24.9-12.4l1.1,2.3L1.1,26.1L0,23.7z"/>
	</g>
	<g id="LineSans_Doodle" transform="translate(3.000000, 165.000000)">
		<path id="Fill-1_2_" d="M8.4,6.6L8.4,6.6c-0.7,1.5-1,3.2-0.9,4.8c0.2,1.2,0.7,2,1,2.2c0.3-0.3,0.9-1.3,0.9-2.8
			C9.5,9.3,9,7.9,8.4,6.6 M8.5,16c-0.5,0-1-0.2-1.5-0.4c-1-0.7-1.8-2.2-2-3.9c-0.3-2,0.1-4.2,1-6.1c0.2-0.3,0.3-0.7,0.6-1
			c-0.5-0.3-1-0.4-1.5-0.3c-1,0.3-2.3,2.1-2.6,4.6L0,8.6c0.4-3.3,2.2-6,4.3-6.7C5.6,1.5,7,1.7,8.2,2.6C8.5,2.3,8.7,2.1,9,1.9
			c1-0.9,2.3-1.7,3.7-1.7c1.7,0,3.2,1.2,3.8,3.1c0.4,1.5,0.4,1.9,0.3,2.9c0,0.3-0.1,0.7-0.1,1.2c-0.1,1,0.1,1.2,0.1,1.3
			c0.1,0.1,0.3,0.2,0.4,0.3c0.2-0.1,0.3-0.3,0.6-0.8c0.3-0.4,0.4-0.8,0.6-1c0.3-0.4,0.4-0.7,0.6-1.3c0.7-2.2,1.6-3.4,2.9-3.9
			c1.5-0.7,2.9-0.3,4,0.1L25,4.4c-1-0.3-1.6-0.3-2.1-0.2c-0.5,0.3-1,1.1-1.6,2.5c-0.3,0.9-0.6,1.4-0.9,1.8C20.2,8.8,20.1,9,20,9.4
			c-0.3,0.6-1,1.7-2.2,2.2c-0.6,0.2-1.2,0.1-1.7-0.2c-1.6-0.9-2.1-1.6-2-3.9c0-0.6,0.1-1,0.1-1.4c0.1-0.7,0.1-0.9-0.3-1.8
			c-0.4-0.9-0.9-1.4-1.3-1.4l0,0c-0.6,0-1.5,0.6-2.1,1.1C10.2,4.2,10,4.4,9.7,4.7C9.9,5,10,5.1,10.1,5.4c1,1.6,1.5,3.7,1.5,5.6
			c-0.1,2.2-1,4.8-2.9,5.2C8.9,15.9,8.7,16,8.5,16"/>
	</g>
	<g id="LineSans_Horizontal" transform="translate(3.000000, 203.000000)">
		<polygon id="Path" points="0,3.3 26,3.3 26,0.7 0,0.7 		"/>
	</g>
	<g id="LineSans" transform="translate(3.000000, 228.000000)">
		<polygon id="Path_1_" points="24.7,0.3 0,15.5 1.3,17.7 26,2.5 		"/>
	</g>
	<g id="LineSans_Segment" transform="translate(3.000000, 253.000000)">
		<path id="Combined-Shape_8_" d="M0,12.8l0.7-2.4L20,16.1l-0.7,2.4L0,12.8z M21.3,23.4v-1.8h2.5v1.8H21.3z M16.3,23.4v-1.8h2.5v1.8
			H16.3z M11.3,23.4v-1.8h2.5v1.8H11.3z M6.3,23.4v-1.8h2.5v1.8H6.3z M1.3,23.4v-1.8h2.5v1.8H1.3z M24.2,6.8V4.4H26v2.4H24.2z
			 M24.2,11.6V9.2H26v2.4H24.2z M24.2,16.3v-2.4H26v2.4H24.2z M24.2,21.2v-2.4H26v2.4H24.2z M24.2,25.5v-1.9h1.3v1.9H24.2z"/>
	</g>
	<g id="LineSans_Continuouos" transform="translate(3.000000, 294.000000)">
		<polygon id="Path_2_" points="24.2,0.9 18.6,7.1 12.9,4.4 6.6,9.5 2.1,2.6 0,3.8 6.1,13.1 13.3,7.2 19.2,10 26,2.5 		"/>
	</g>
	<g id="LineSans_Vertical" transform="translate(14.000000, 319.000000)">
		<polygon id="Path_3_" points="0.3,26.9 3.7,26.9 3.7,0.9 0.3,0.9 		"/>
	</g>
	<g id="Shape_Elipse" transform="translate(3.000000, 355.000000)">
		<path id="Fill-1_4_" d="M13,0.4C5.8,0.4,0,4.6,0,9.9s5.8,9.5,13,9.5s13-4.2,13-9.5S20.2,0.4,13,0.4 M13,2.9c5.6,0,10.4,3.2,10.4,7
			s-4.8,7-10.4,7s-10.4-3.2-10.4-7S7.4,2.9,13,2.9"/>
	</g>
	<g id="Fib_Retracement" transform="translate(3.000000, 384.000000)">
		<path id="Combined-Shape_10_" d="M23.4,2V0.3h2.4V2H23.4z M18.5,2V0.3h2.4V2H18.5z M10.5,13.2V12h14.9v1.2H10.5z M24.2,25.6v-1.7
			H26v1.7H24.2z M19.3,25.6v-1.7h2.4v1.7H19.3z M14.5,25.6v-1.7h2.4v1.7H14.5z M9.7,25.6v-1.7h2.4v1.7H9.7z M4.9,25.6v-1.7h2.4v1.7
			H4.9z M0,25.6v-1.7h2.4v1.7H0z M5.5,19.7v-2.5h19.8v2.5H5.5z M15.4,8.5V6h10v2.5H15.4z"/>
	</g>
	<g id="Fib_Projection" transform="translate(3.000000, 416.000000)">
		<path id="Combined-Shape_11_" d="M0.6,24.9v-1.2h1.8v1.2H0.6z M19.1,25.4v-1.8h2.4v1.8H19.1z M14.3,25.4v-1.8h2.4v1.8H14.3z
			 M9.5,25.4v-1.8h2.4v1.8H9.5z M4.8,25.4v-1.8h2.4v1.8H4.8z M23.8,24.9v-1.2h1.8v1.2H23.8z M10.9,13.4v-1.8h2.4v1.8H10.9z M6,13.4
			v-1.8h2.4v1.8H6z M14.6,18.8v-1.2h1.8v1.2H14.6z M18.7,18.8v-1.2h2.4v1.2H18.7z M23.5,18.8v-1.2h1.8v1.2H23.5z M1,18.8v-1.2h2.4
			v1.2H1z M1.1,2.9V0.5h24.5v2.4H1.1z M1.1,7.3V6.1h19v1.2H1.1z M9.2,17.5L24.5,5.4l1.6,1.8L9.2,20.6l-9.1-8.3l1.6-1.7L9.2,17.5z"/>
	</g>
	<g id="Fib_Arc" transform="translate(3.000000, 450.000000)">
		<path id="Combined-Shape_12_" d="M17.9,21.3h-1.1v-0.6c0-2-1.6-3.7-3.7-3.7s-3.7,1.6-3.7,3.7v0.6H8.3v-0.6c0-2.7,2.2-4.9,4.9-4.9
			s4.9,2.2,4.9,4.9v0.6H17.9z M11.9,12.8l-0.1-1.1h0.6c0.2,0,0.4,0,0.6,0s0.3,0,0.6,0h0.6l-0.1,1.1h-0.6c-0.2,0-0.3,0-0.5,0
			s-0.3,0-0.5,0H11.9z M17,13.8l-0.5-0.2c-0.3-0.2-0.6-0.3-1-0.4L15,13l0.3-1l0.5,0.2c0.3,0.1,0.8,0.3,1.1,0.4l0.5,0.3L17,13.8z
			 M8.9,13.9l-0.5-1l0.5-0.3c0.3-0.2,0.7-0.3,1.1-0.4l0.5-0.2l0.3,1l-0.5,0.2c-0.3,0.1-0.6,0.3-1,0.4L8.9,13.9z M19.3,15.9L19,15.5
			c-0.3-0.3-0.4-0.5-0.8-0.7l-0.4-0.3l0.8-0.9l0.4,0.3c0.3,0.3,0.6,0.5,0.9,0.9l0.3,0.4L19.3,15.9z M6.7,15.9l-0.9-0.8l0.3-0.4
			c0.3-0.3,0.5-0.6,0.9-0.9l0.4-0.3l0.8,0.9l-0.4,0.3c-0.3,0.3-0.5,0.4-0.7,0.7L6.7,15.9z M20.7,18.6l-0.2-0.5
			c-0.1-0.3-0.3-0.6-0.4-1l-0.3-0.5l1-0.5l0.3,0.5c0.2,0.3,0.3,0.7,0.4,1.1l0.2,0.5L20.7,18.6z M5.3,18.7l-1-0.3l0.2-0.5
			c0.1-0.3,0.3-0.8,0.4-1.1l0.3-0.5l1,0.5l-0.3,0.5c-0.2,0.3-0.3,0.6-0.4,1L5.3,18.7z M22.1,21.3H21v-0.6c0-0.2,0-0.3,0-0.5v-0.6
			l1.1-0.1v0.6c0,0.2,0,0.4,0,0.6V21.3z M14.7,8.6l-0.6-0.1c-0.3,0-0.7-0.1-1.1-0.1h-0.6V7.3H13c0.4,0,0.8,0,1.2,0.1l0.6,0.1
			L14.7,8.6z M9.3,9.1L9,8l0.5-0.2c0.3-0.1,0.8-0.2,1.1-0.3l0.5-0.1l0.2,1.1l-0.5,0.1c-0.3,0.1-0.7,0.2-1,0.3L9.3,9.1z M17.9,9.5
			l-0.5-0.3c-0.3-0.1-0.7-0.3-1-0.3l-0.5-0.2l0.3-1.1l0.5,0.2c0.3,0.1,0.8,0.3,1.1,0.3l0.5,0.2L17.9,9.5z M6.3,10.4l-0.6-1l0.5-0.3
			c0.3-0.2,0.7-0.3,1-0.5l0.5-0.3l0.5,1L7.7,9.6c-0.3,0.2-0.6,0.3-1,0.5L6.3,10.4z M20.6,11.2l-0.4-0.3c-0.3-0.2-0.6-0.4-0.9-0.6
			L18.8,10l0.6-1l0.5,0.3c0.3,0.2,0.7,0.4,1,0.7l0.4,0.3L20.6,11.2z M3.9,12.6l-0.8-0.8l0.4-0.4c0.3-0.3,0.6-0.5,0.9-0.8l0.4-0.3
			l0.7,0.9l-0.4,0.3c-0.3,0.3-0.5,0.5-0.8,0.8L3.9,12.6z M22.9,13.5l-0.3-0.4c-0.3-0.3-0.4-0.5-0.7-0.8l-0.4-0.4l0.8-0.8l0.4,0.4
			c0.3,0.3,0.5,0.6,0.8,0.9l0.3,0.4L22.9,13.5z M2.1,15.2l-1-0.5l0.3-0.5c0.2-0.3,0.4-0.7,0.6-1l0.3-0.4l1,0.6L3,13.8
			c-0.2,0.3-0.4,0.6-0.6,1L2.1,15.2z M24.2,15.8l-0.3-0.5c-0.1-0.2-0.2-0.3-0.2-0.3l-0.3-0.5l1-0.5l0.3,0.5c0.1,0.2,0.2,0.3,0.3,0.4
			l0.3,0.5L24.2,15.8z M1.6,8L0,6.4l0.9-0.8C4.2,2.5,8.5,0.7,13,0.7s8.8,1.7,12.1,4.9L26,6.4L24.4,8l-0.9-0.8
			C20.6,4.5,16.8,3,12.9,3c-4,0-7.7,1.5-10.6,4.2L1.6,8z"/>
		<path id="Fill-3" d="M5,21.3H3.9v-0.6c0-0.2,0-0.4,0-0.6v-0.6L5,19.6v0.6c0,0.2,0,0.3,0,0.5V21.3z"/>
	</g>
	<g id="Fib_Fan" transform="translate(2.000000, 480.000000)">
		<path id="Combined-Shape_13_" d="M7.8,17.4L23.9,2.1L24.8,3L6.2,20.8L5,23.2h21.9v2.5h-26L13.6,0.4l2.3,1.1L7.8,17.4z M7.5,22.4
			l-0.6-1l1.6-1l0.6,1L7.5,22.4z M20.5,14.8l-0.6-1l2.2-1.3l0.6,1L20.5,14.8z M15.9,17.5l-0.6-1l2.2-1.3l0.6,1L15.9,17.5z
			 M11.4,20.2l-0.6-1l2.2-1.3l0.6,1L11.4,20.2z M24.4,11.1l1.6-1l0.6,1l-1.6,1L24.4,11.1z M22,20.5l-0.3-1.2l2.4-0.6l0.3,1.2
			L22,20.5z M17.2,21.7l-0.3-1.2l2.4-0.6l0.3,1.2L17.2,21.7z M12.3,22.8L12,21.6l2.4-0.6l0.3,1.2L12.3,22.8z"/>
	</g>
	<g id="Fib_TimeZones" transform="translate(4.000000, 511.000000)">
		<path id="Combined-Shape_18_" d="M11.7,9.4V7.5h1.2v1.9H11.7z M11.7,6.2V4.1h1.2v2.1H11.7z M11.7,2.8V0.9h1.2v1.9H11.7z
			 M11.7,26.9V25h1.2v1.9H11.7z M11.7,22.9v-2.3h1.2v2.3H11.7z M11.7,18.5v-1.9h1.2v1.9H11.7z M17.2,5.8V3.9h1.2v1.9H17.2z
			 M17.2,2.8V0.9h1.2v1.9H17.2z M17.2,26.9V25h1.2v1.9H17.2z M17.2,22.6v-2.5h1.2v2.5H17.2z M17.2,17.6v-1.9h1.2v1.9H17.2z
			 M22.7,26.6v-1.9h1.2v1.9H22.7z M22.7,7.7V5.2h1.2v2.5H22.7z M22.7,12.6v-2.4h1.2v2.4H22.7z M22.7,17.5V15h1.2v2.5H22.7z
			 M22.7,22.4v-2.5h1.2v2.5H22.7z M22.7,2.8V0.9h1.2v1.9H22.7z M2.6,15.9l17.9-7.5l0.9,2.2L2.7,18.4v7.9H0.3v-25h2.4v14.6H2.6z
			 M6.2,26.6v-7.9h1.2v7.9H6.2z M6.2,12.5V1h1.2v11.5H6.2z"/>
	</g>
	<g id="Gann_Fan" transform="translate(3.000000, 543.000000)">
		<path id="Combined-Shape_19_" d="M8.6,4.1L8.3,4.8l-1-0.6l1-1.9L8,1.4l2.4-0.7l0.3,0.9l0.2-0.3l2,1.4l-0.7,1l-1-0.8l0.1,0.3
			L26,23.3L25,24L12.3,6.6l5.6,19.5l-2.4,0.7L9.6,6.7L6.7,26.2L5.5,26L8.6,4.1z M14.1,5.3l0.7-1l2,1.4l-0.7,1L14.1,5.3z M4.9,8.5
			L6,6.4L7,7L5.9,9.1L4.9,8.5z M18,8.1l0.7-1l2,1.4l-0.7,1L18,8.1z M21.9,11l0.7-1l2,1.4l-0.7,1L21.9,11z M2.5,12.7l1.1-2.1l1,0.6
			l-1.1,2.1L2.5,12.7z M0.2,17l1.1-2.1l1,0.6l-1.1,2.1L0.2,17z"/>
	</g>
	<g id="Gartley" transform="translate(3.000000, 575.000000)">
		<path id="Combined-Shape_20_" d="M12.7,13L8.4,5.3l-5.9,6.9l-1.9-1.6l8.2-9.7l14,24.7l-2.2,1.3l-6.9-12.2h-1L12.7,13L12.7,13z
			 M7.9,14.2v-1.3h1.9v1.3H7.9z M18.1,14.7V13h2.6v1.6L18.1,14.7L18.1,14.7z M23.6,14.2v-1.3h1.9v1.3H23.6z"/>
	</g>
	<g id="Pitchfork" transform="translate(3.000000, 607.000000)">
		<polygon id="Combined-Shape_24_" points="14.6,13.9 19.3,18.6 24.1,13.8 25.8,15.5 19.5,22 17.8,20.3 17.8,20.3 13.1,15.6 
			1.9,26.8 0.2,25.1 11.5,13.8 7.5,9.8 7.5,9.8 5.8,8.1 13.1,0.8 14.8,2.5 9.2,8.1 13.2,12.1 24.3,1 26,2.7 		"/>
	</g>
	<g id="Quadrant_Lines" transform="translate(3.000000, 640.000000)">
		<path id="Combined-Shape_26_" d="M1,14.1v-2.6h24v2.6H1z M0,25.4v-1.3h2v1.3H0z M19.1,25.8v-1.7h2.5v1.7H19.1z M14.2,25.8v-1.7
			h2.5v1.7H14.2z M9.3,25.8v-1.7h2.5v1.7H9.3z M4.3,25.8v-1.7h2.5v1.7H4.3z M24,25.4v-1.3h2v1.3H24z M0,1.5V0.2h2v1.3H0z M19.1,1.9
			V0.2h2.5v1.7C21.6,1.9,19.1,1.9,19.1,1.9z M14.2,1.9V0.2h2.5v1.7C16.7,1.9,14.2,1.9,14.2,1.9z M9.3,1.9V0.2h2.5v1.7
			C11.8,1.9,9.3,1.9,9.3,1.9z M4.3,1.9V0.2h2.5v1.7C6.8,1.9,4.3,1.9,4.3,1.9z M24,1.5V0.2h2v1.3H24z M1,6.2V4.9h24v1.3H1z M1.3,20.7
			v-1.3h23.5v1.3H1.3z"/>
	</g>
	<g id="Ray" transform="translate(3.000000, 671.000000)">
		<path id="Combined-Shape_27_" d="M20,7.9h1.8v1.7h-2.3l-17.7,11l-1.2-2.1l14.3-9h-0.3V7.8H17v0.4l1.2-0.8V5.6h1.7L20,7.9L20,7.9z
			 M24.3,9.6V7.9h1.5v1.7H24.3z M9.9,9.6V7.9h2.4v1.7H9.9z M5,9.6V7.9h2.4v1.7H5z M0.2,9.6V7.9h2.4v1.7H0.2z M18.3,3.3V0.9H20v2.4
			C20,3.3,18.3,3.3,18.3,3.3z M18.3,13.1v-2.4H20v2.4H18.3z M18.3,18v-2.4H20V18H18.3z M18.3,22.9v-2.4H20v2.4H18.3z M18.3,26.8
			v-1.5H20v1.5H18.3z"/>
	</g>
	<g id="Shape_Rectangle" transform="translate(3.000000, 707.000000)">
		<path id="Combined-Shape_28_" d="M0,19.3V0.2h26v19.1C26,19.3,0,19.3,0,19.3z M2.6,16.8h20.8v-14H2.6V16.8z"/>
	</g>
	<g id="Regression_Line" transform="translate(3.000000, 736.000000)">
		<path id="Combined-Shape_29_" d="M24.7,10.9L1.3,18.2v-3l23.4-7.3V0.7H26v16.6h-1.3V10.9z M0,24.9V8.3h1.3v16.6
			C1.3,24.9,0,24.9,0,24.9z"/>
	</g>
	<g id="Shape_Check" transform="translate(3.000000, 771.000000)">
		<polygon id="Fill-1_6_" points="22.9,0.3 9,12.8 3.2,7.3 0,10.8 8.9,19.3 26,3.9 		"/>
	</g>
	<g id="Shape_Cross" transform="translate(3.000000, 800.000000)">
		<polygon id="Combined-Shape_30_" points="13,10.8 23.8,0 26,2.1 15.2,13 26,23.8 23.9,26 13,15.2 2.2,26 0,23.9 10.8,13 0,2.2 
			2.1,0 		"/>
	</g>
	<g id="Shape_Focus" transform="translate(3.000000, 833.000000)">
		<path id="Combined-Shape_31_" d="M0,0.6L0,0.6L11,12L0,23.4V0.6z M2.6,7.1V17l4.7-4.9L2.6,7.1z M26,0.6L26,0.6v23L15,12.2L26,0.6z
			 M18.7,12l4.7,4.9V7L18.7,12z"/>
	</g>
	<g id="Shape_Heart" transform="translate(2.000000, 864.000000)">
		<path id="Fill-1_7_" d="M8.2,3.3c-0.8,0-1.6,0.2-2.3,0.6c-1.4,0.7-2.3,2.3-2.3,4v0.3c0,0.5,0.2,1.2,0.4,2
			c1.8,5,7.9,10.1,10.1,11.7c2.1-1.7,8.1-6.7,9.9-11.7c0.3-0.9,0.4-1.7,0.4-2.3V7.7c0-1.7-0.9-3.2-2.3-3.9c-1.5-0.8-3-0.8-4.3-0.2
			c-1.3,0.6-2.3,1.8-2.5,3.2c-0.2,0.6-0.6,1-1.3,1c-0.6,0-1.1-0.4-1.2-1c-0.3-1.4-1.3-2.6-2.5-3.2C9.5,3.5,8.9,3.3,8.2,3.3
			 M14.1,24.9c-0.3,0-0.5-0.1-0.8-0.3C13,24.3,4,17.8,1.6,11.1c0,0-0.1-0.1-0.1-0.2C1.2,9.9,1,8.9,0.9,8V7.7c0-2.7,1.5-5.2,3.7-6.3
			s4.5-1.1,6.6-0.2c1,0.5,2,1.3,2.7,2.3c0.7-1,1.7-1.7,2.7-2.3c2.1-1,4.4-1,6.6,0.2c2.3,1.1,3.7,3.7,3.7,6.3v0.2c0,1-0.3,2-0.6,3.1
			c-2.4,6.8-11.2,13.1-11.6,13.5C14.6,24.8,14.3,24.9,14.1,24.9"/>
	</g>
	<g id="Shape_Star" transform="translate(3.000000, 896.000000)">
		<path id="Combined-Shape_32_" d="M13,0.7l4,8l9,1.3l-6.5,6.2l1.6,8.8L13,20.8L4.9,25l1.6-8.8L0,10l9-1.3L13,0.7z M8.9,16.5l-0.7,4
			l3.6-1.9l1.1-0.6l1.1,0.6l3.6,1.9l-0.7-4l-0.3-1.2l1-0.9l2.9-2.8L16.4,11l-1.3-0.2l-0.6-1.1l-1.8-3.6l-1.8,3.6l-0.6,1.1L9,11
			l-4.1,0.6l2.9,2.8l1,0.9L8.9,16.5z"/>
	</g>
	<g id="Shape_Arrow" transform="translate(3.000000, 933.000000)">
		<polygon id="Combined-Shape_33_" points="17.7,3.9 16,0.3 26.1,0.8 20.6,9.7 18.9,6.1 1.2,15.5 0.1,13.2 		"/>
	</g>
	<g id="SpeedResistance_Arc" transform="translate(2.000000, 964.000000)">
		<path id="Combined-Shape_34_" d="M11.7,13.1l3,4.1l-1,0.7l-3-4.1c-1,0.9-1.6,2.1-1.6,3.5H6.6c0-2.2,1-4.1,2.6-5.4l-2.3-3
			c-0.5,0.4-1,1-1.6,1.5l-1-0.8C4.8,9,5.4,8.4,6,7.9L6.1,8L0.8,1l1-0.7L10,11.2c1.1-0.7,2.5-1.1,4-1.1c4.1,0,7.6,3.3,7.6,7.3h-2.5
			c0-2.7-2.2-4.8-5-4.8C13.3,12.4,12.4,12.6,11.7,13.1z M2.8,17.2H1.5c0-0.4,0-0.9,0.1-1.3L2.8,16C2.8,16.4,2.8,16.9,2.8,17.2z
			 M13.1,6.2L13,5c0.8-0.1,1.6-0.1,2.5,0l-0.1,1.2C14.6,6.1,13.8,6.1,13.1,6.2z M19.6,7.4c-0.7-0.3-1.4-0.6-2.1-0.8l0.3-1.1
			c0.8,0.3,1.6,0.5,2.3,1L19.6,7.4z M8.8,7.5l-0.6-1c0.7-0.3,1.5-0.7,2.3-1l0.3,1.1C10.2,6.8,9.5,7.2,8.8,7.5z M23.1,10.2
			c-0.5-0.5-1-1-1.6-1.6l0.8-1c0.6,0.5,1.2,1,1.7,1.6L23.1,10.2z M25.1,13.9c-0.3-0.7-0.5-1.4-0.9-2l1.1-0.6c0.4,0.7,0.7,1.5,1,2.2
			L25.1,13.9z M3.3,14l-1.2-0.3c0.3-0.8,0.6-1.5,1-2.2l1.1,0.6C3.8,12.6,3.5,13.3,3.3,14z M27,17.2h-1.3c0-0.3,0-0.8-0.1-1.1
			l1.2-0.1C27,16.3,27,16.8,27,17.2z"/>
	</g>
	<g id="Time_Cycle" transform="translate(3.000000, 991.000000)">
		<path id="Combined-Shape_35_" d="M24.9,26.8v-24h0.7v24H24.9z M12.8,26.8v-24h1.3v24H12.8z M19.1,26.8v-24h0.7v24H19.1z M0.4,26.8
			v-24h2.7v24H0.4z M6.9,26.8v-24h1.3v24H6.9z"/>
	</g>
	<g id="Tirone_Levels" transform="translate(3.000000, 1024.000000)">
		<path id="Combined-Shape_36_" d="M1.4,20.4v-1.3h23.3v1.3H1.4z M1.4,5.8V4.5h23.3v1.3H1.4z M4.2,10.3V9.6h17.7v0.7H4.2z M4.3,15.2
			v-0.6h17.3v0.6H4.3z M0,26V0h26v26H0z M1.3,24.7h23.4V1.3H1.3V24.7z"/>
	</g>
	<g id="Trend_Line" transform="translate(3.000000, 1056.000000)">
		<path id="Combined-Shape_37_" d="M10.1,5.6h-2V11H6.9V5.6H5v-1h5.1V5.6L10.1,5.6z M0,15.2V0.1h15v15.1C15,15.2,0,15.2,0,15.2z
			 M1.3,13.9h12.5V1.3H1.3V13.9z M8.9,23.6l15.5-12.7l1.6,1.9L10.5,25.5L8.9,23.6z"/>
	</g>
	<g id="SpeedResistance_Line" transform="translate(2.000000, 1088.000000)">
		<path id="Combined-Shape_38_" d="M5.2,22.6l1.7-0.9l0.5,1l-2,1l-0.5-1l-1,1l-0.8,1.6l-0.4-0.2l-0.4,0.2L2,24.8l-1.1-0.5L13.1,0.1
			l2.2,1L5.6,20.4L26.1,0.1L27,1L5.2,22.6z M21.7,15.8l-0.5-1l2-1l0.5,1L21.7,15.8z M17.6,17.8l-0.5-1l2-1l0.5,1L17.6,17.8z
			 M13.5,19.9l-0.5-1l2-1l0.5,1L13.5,19.9z M9.5,21.9l-0.5-1l2-1l0.5,1L9.5,21.9z M25.2,12.6l1.1-0.5l0.5,1l-1.1,0.5L25.2,12.6z"/>
	</g>
	<g id="Direct_Select2" transform="translate(2.000000, 1312.000000)">
		<path id="Combined-Shape_39_" d="M18.1,19.1l-5.4,5.7L6.1,5l19.8,6.6L20.2,17l6.8,6.8L24.8,26L18.1,19.1z M10.9,9.9l3.1,9.2
			l2.9-3.1l0.1-0.1l0.1-0.1l3.1-2.9L10.9,9.9z M1,0h7.9v3.7H7.4V1.5H2.5v4.9h2.2v1.5H0.9L1,0L1,0z"/>
	</g>
	<polygon id="Path_4_" points="14.3,1358.1 10.6,1361.7 9,1347 21.1,1355.2 16.3,1356.9 22,1365.7 20,1367 	"/>
	<g id="Measure" transform="translate(3.000000, 1119.000000)">
		<path id="Combined-Shape_54_" d="M10.1,11.7l-1.4,1.4l2.7,2.7l-0.9,0.9L7.8,14l-1.4,1.4l2.7,2.7L8.2,19l-2.7-2.7l-1.4,1.4l2.7,2.7
			l-0.9,0.9l-2.7-2.7L1.8,20l5,5L24.1,7.7l-5-5l-1.4,1.4l2.7,2.7l-0.9,0.9L17,4.8l-1.4,1.4l2.7,2.7l-0.9,0.9L14.7,7l-1.4,1.4
			l2.7,2.7L15.2,12l-2.7-2.7l-1.4,1.4l2.7,2.7l-0.9,0.9L10.1,11.7z M19.2,0.8L26,7.6L6.8,26.8L0,20L19.2,0.8z"/>
	</g>
	<g id="Restore_Default" transform="translate(3.000000, 1151.000000)">
		<path id="Combined-Shape_55_" d="M6.2,6.2l3.3,1.3l-8,6.5L0,3.7l3.6,1.4c2.5-2.7,5.9-4.3,9.5-4.3C20.2,0.8,26,6.7,26,13.9
			S20.3,27,13.2,27v-2.6c5.7,0,10.3-4.7,10.3-10.5S18.9,3.4,13.2,3.4C10.6,3.5,8.1,4.4,6.2,6.2z M16.1,14c0,1.4-1.1,2.5-2.5,2.5
			s-2.5-1.1-2.5-2.5s1.1-2.5,2.5-2.5C14.9,11.4,16.1,12.6,16.1,14z"/>
	</g>
	<g id="Clear-Drawings" transform="translate(5.000000, 1184.000000)">
		<path id="Combined-Shape_56_" d="M0.1,6.6V4.1h21.7v2.5H0.1z M5.5,2.5V0h11v2.5H5.5z M1.9,8.7h18.3l-1.1,17.2H3L1.9,8.7z M3.2,10
			l1,14.7h13.7l1-14.7L3.2,10L3.2,10z M10.4,21.2v-8h1.2v8H10.4z M6.5,21.2v-8h1.2v8H6.5z M14.3,21.3v-8h1.2v8H14.3z"/>
	</g>
	<g id="Cancel-Copy" transform="translate(3.000000, 1215.000000)">
		<g id="Cancel">
			<path id="Combined-Shape_57_" d="M4.9,20.2L19.3,5.6c-1.7-1.4-3.9-2.2-6.2-2.2C7.5,3.4,2.9,8.1,2.9,13.8
				C2.8,16.2,3.6,18.5,4.9,20.2z M6.8,22c1.7,1.4,3.9,2.2,6.2,2.2c5.6,0,10.2-4.7,10.2-10.4c0-2.4-0.8-4.6-2.2-6.4L6.8,22z M13,26.8
				c-7,0-12.7-5.8-12.7-13S6,0.8,13,0.8s12.7,5.8,12.7,13S20,26.8,13,26.8z"/>
		</g>
	</g>
	<g id="Undo" transform="translate(2.000000, 1254.000000)">
		<path id="Combined-Shape_58_" d="M7.2,5.5l3.3,1.3l-7.8,6.8L0.9,3.1l3.6,1.4c2.3-2.8,5.5-4.2,9.6-4.2c12.6,0,12.7,13.3,12.7,13.3
			h-2.5h1.3h-1.3c0-0.4-0.2-10.7-10.2-10.7C11.3,2.9,9,3.8,7.2,5.5z"/>
	</g>
	<g id="Redo" transform="translate(3.000000, 1286.000000)">
		<path id="Combined-Shape_59_" d="M22.4,4.6L26,3.3l-1.8,9.8l-7.8-6.4l3.3-1.2c-1.7-1.6-4.1-2.4-7-2.4c-10.1,0-10.2,9.6-10.2,10
			H0.1C0.1,13,0.3,0.6,12.8,0.6C16.8,0.7,20.1,2,22.4,4.6z"/>
	</g>
	<g id="Crosshair" transform="translate(3.000000, 128.000000)">
		<polygon id="Combined-Shape_3_" points="13.7,16.4 0.3,16.4 0.3,13.6 13.7,13.6 13.7,0 16.4,0 16.4,13.6 25.8,13.6 25.8,16.4 
			16.4,16.4 16.4,26 13.7,26 		"/>
	</g>
	<g id="Group" transform="translate(2.000000, 1375.000000)">
		<rect id="Rectangle" width="12" height="12"/>
		<rect id="Rectangle_1_" y="16" width="12" height="12"/>
		<rect id="Rectangle_2_" x="16" width="12" height="12"/>
		<rect id="Rectangle_3_" x="16" y="16" width="12" height="12"/>
	</g>
	<g id="Group_1_" transform="translate(2.000000, 1406.000000)">
		<rect id="Rectangle_4_" y="0.9" width="12" height="12"/>
		<rect id="Rectangle_5_" y="17" width="11.9" height="11.9"/>
		<rect id="Rectangle_6_" x="15" y="5.9" width="13" height="3.1"/>
		<rect id="Rectangle_7_" x="15" y="22" width="13" height="3.1"/>
	</g>
	<path id="Path_5_" d="M25.8,1498H5.2c-1.8,0-3.2-1.4-3.2-3.2v-20.5c0-1.8,1.4-3.2,3.2-3.2h12.1v2.8H5.2c-0.3,0-0.5,0.2-0.5,0.5
		v20.5c0,0.3,0.2,0.5,0.5,0.5h20.5c0.3,0,0.5-0.2,0.5-0.5v-12H29v12C29,1496.6,27.5,1498,25.8,1498z"/>
	<polygon id="Path_6_" points="21.9,1489 21.9,1486.2 16.9,1486.2 30,1473 28,1471 14.8,1484.1 14.8,1479.1 12,1479.1 12,1489 	"/>
	<path id="Path_7_" d="M25.7,1466H5.2c-1.8,0-3.2-1.4-3.2-3.2v-20.5c0-1.8,1.4-3.2,3.2-3.2h12.1v2.8H5.2c-0.3,0-0.5,0.2-0.5,0.5
		v20.5c0,0.3,0.2,0.5,0.5,0.5h20.5c0.3,0,0.5-0.2,0.5-0.5v-12H29v12C28.9,1464.5,27.4,1466,25.7,1466z"/>
	<polygon id="Path_8_" points="19.1,1439 19.1,1441.9 24.1,1441.9 11,1455.1 13,1457 26.2,1443.8 26.2,1448.9 29,1448.9 29,1439 	
		"/>
	<path id="Shape" d="M29.7,1520.4l-2.4-1.4c0.2-1.3,0.2-2.7,0-4l2.4-1.4c0.3-0.2,0.4-0.5,0.3-0.8c-0.6-2-1.7-3.8-3.1-5.3
		c-0.2-0.2-0.6-0.3-0.8-0.1l-2.4,1.4c-1-0.9-2.2-1.5-3.4-2v-2.8c0-0.3-0.2-0.6-0.5-0.7c-2.1-0.5-4.3-0.4-6.3,0
		c-0.3,0.1-0.5,0.3-0.5,0.7v2.8c-1.3,0.4-2.4,1.1-3.4,2l-2.4-1.4c-0.3-0.2-0.6-0.1-0.8,0.1c-1.4,1.5-2.5,3.3-3.1,5.3
		c-0.1,0.3,0,0.6,0.3,0.8L6,1515c-0.2,1.3-0.2,2.7,0,4l-2.4,1.4c-0.3,0.2-0.4,0.5-0.3,0.8c0.6,2,1.7,3.8,3.1,5.3
		c0.2,0.2,0.6,0.3,0.8,0.1l2.4-1.4c1,0.9,2.2,1.5,3.4,2v2.8c0,0.3,0.2,0.6,0.5,0.7c2.1,0.5,4.3,0.4,6.3,0c0.3-0.1,0.5-0.3,0.5-0.7
		v-2.8c1.3-0.4,2.4-1.1,3.4-2l2.4,1.4c0.3,0.2,0.6,0.1,0.8-0.1c1.4-1.5,2.5-3.3,3.1-5.3C30.1,1520.9,29.9,1520.6,29.7,1520.4z
		 M16.4,1521.6c-2.5,0-4.6-2-4.6-4.5s2-4.5,4.6-4.5s4.6,2,4.6,4.5S18.9,1521.6,16.4,1521.6z"/>
	<polygon id="Path_9_" points="16,1537 20,1544.9 29,1546.2 22.5,1552.3 24.1,1561 16,1556.9 7.9,1561 9.5,1552.3 3,1546.2 
		12,1544.9 	"/>
	<path id="Shape_1_" d="M16,1567c-7.2,0-13,5.7-13,12.8l1.8,15.1h6.7l-1.5-15c0-3.7,2.1-5.9,6-5.9s6,2.2,6,5.9l-1.5,15.1h6.7l1.8-15
		C29,1572.8,23.2,1567,16,1567z M10.2,1589.6l0.5,4.6H5.6l-0.5-4.6H10.2z M26.5,1594.2h-5.3l0.5-4.6H27L26.5,1594.2z"/>
	<polygon id="Stroke-68-Copy-2" points="27,1601 29,1602.2 22.1,1613.6 19.5,1609.7 11.6,1623 9,1619 5,1626 3,1624.9 8.9,1614.7 
		11.5,1618.7 19.4,1605.4 22,1609.3 	"/>
</g>
<g id="Studies-_x26_-Weird-Chart-Elements">
	<g id="stx-sprite-drawing-tools-white" transform="translate(-1.000000, -1633.000000)">
		<path id="Combined-Shape_4_" d="M4.8,3270.6h16.7v2.5H4.8V3270.6z M4.8,3275.1h25v2.5h-25C4.8,3277.6,4.8,3275.1,4.8,3275.1z
			 M4.8,3279.6h16.7v2.5H4.8V3279.6z M4.8,3284.1h11v2.5h-11V3284.1z M4.8,3266.1h8.3v2.5H4.8V3266.1z"/>
	</g>
</g>
</svg>
