<?xml version="1.0" encoding="utf-8"?>
<!-- Generator: Adobe Illustrator 26.0.1, SVG Export Plug-In . SVG Version: 6.00 Build 0)  -->
<svg version="1.1" id="Layer_1" xmlns="http://www.w3.org/2000/svg" xmlns:xlink="http://www.w3.org/1999/xlink" x="0px" y="0px"
	 width="79.8px" height="1160.5px" viewBox="0 0 79.8 1160.5" style="enable-background:new 0 0 79.8 1160.5;" xml:space="preserve"
	>
<style type="text/css">
	.st0{fill:none;stroke:#000000;stroke-width:1.5;}
	.st1{fill:none;stroke:#000000;stroke-width:1.5;stroke-linecap:square;}
	.st2{fill:none;stroke:#000000;stroke-width:1.5;stroke-linecap:square;stroke-dasharray:1,2.7;}
	.st3{fill:none;stroke:#000000;stroke-width:1.5;stroke-linecap:square;stroke-dasharray:1,3;}
	.st4{fill:none;stroke:#FFFFFF;stroke-width:1.5;stroke-linecap:square;stroke-dasharray:1,3;}
	.st5{fill:none;}
	.st6{fill:#FFFFFF;}
	.st7{fill:none;stroke:#000000;stroke-width:1.5;stroke-linecap:square;stroke-dasharray:2,3;}
	.st8{fill-rule:evenodd;clip-rule:evenodd;}
	.st9{fill:none;stroke:#FFFFFF;stroke-width:1.5;}
	.st10{clip-path:url(#SVGID_00000011003304181211623450000016847207222239373973_);}
	.st11{clip-path:url(#SVGID_00000067227554785383638010000005919088391299869057_);}
	.st12{clip-path:url(#SVGID_00000093877175133729785900000010215516542646783638_);}
	.st13{clip-path:url(#SVGID_00000115472678358800425360000016410460302096153488_);}
	.st14{fill:none;stroke:#000000;stroke-width:1.5;stroke-linecap:square;stroke-dasharray:2.257,3.3855;}
	.st15{fill:none;stroke:#000000;stroke-width:1.5;stroke-linecap:square;stroke-dasharray:1.4659,2.1989;}
	.st16{fill:none;stroke:#000000;stroke-width:1.5;stroke-linecap:square;stroke-dasharray:1.9574,2.9361;}
	.st17{fill:none;stroke:#000000;stroke-width:1.5;stroke-linecap:square;stroke-dasharray:1.171,1.7565;}
	.st18{fill:none;stroke:#000000;stroke-width:1.5;stroke-linecap:square;stroke-dasharray:1.6431,2.4646;}
	.st19{fill:none;stroke:#000000;stroke-width:1.5;stroke-linecap:square;stroke-dasharray:1.9117,2.8675;}
	.st20{fill:none;stroke:#000000;stroke-width:1.5;stroke-linecap:square;stroke-dasharray:1.8522,2.7783;}
	.st21{fill:none;stroke:#FFFFFF;stroke-width:1.5;stroke-linecap:square;}
	.st22{fill:none;stroke:#FFFFFF;stroke-width:1.5;stroke-linecap:square;stroke-dasharray:2.257,3.3855;}
	.st23{fill:none;stroke:#FFFFFF;stroke-width:1.5;stroke-linecap:square;stroke-dasharray:1.4659,2.1989;}
	.st24{fill:none;stroke:#FFFFFF;stroke-width:1.5;stroke-linecap:square;stroke-dasharray:1.9574,2.9361;}
	.st25{fill:none;stroke:#FFFFFF;stroke-width:1.5;stroke-linecap:square;stroke-dasharray:1.171,1.7565;}
	.st26{fill:none;stroke:#FFFFFF;stroke-width:1.5;stroke-linecap:square;stroke-dasharray:1.6431,2.4646;}
	.st27{fill:none;stroke:#FFFFFF;stroke-width:1.5;stroke-linecap:square;stroke-dasharray:1.9117,2.8675;}
	.st28{fill:none;stroke:#FFFFFF;stroke-width:1.5;stroke-linecap:square;stroke-dasharray:1.8522,2.7783;}
	.st29{fill:none;stroke:#FFFFFF;stroke-width:1.5;stroke-linecap:square;stroke-dasharray:2,3;}
	.st30{fill:none;stroke:#000000;stroke-miterlimit:10;}
	.st31{fill:none;stroke:#FFFFFF;stroke-miterlimit:10;}
	.st32{fill:#FFFFFF;stroke:#FFFFFF;stroke-width:1.5;}
	.st33{fill:#FFFFFF;stroke:#FFFFFF;stroke-width:1.5;stroke-linecap:square;}
	.st34{fill-rule:evenodd;clip-rule:evenodd;fill:#FFFFFF;}
	.st35{fill:none;stroke:#FFFFFF;}
	.st36{clip-path:url(#SVGID_00000115501148360517558160000006200124573594902166_);}
	.st37{clip-path:url(#SVGID_00000150798786787376436720000004231370461542001074_);fill:#FFFFFF;}
	.st38{clip-path:url(#SVGID_00000073713086933962762280000001504175895823256192_);}
	.st39{clip-path:url(#SVGID_00000047744589918779203670000009874245889480118177_);fill:#FFFFFF;}
	.st40{fill:none;stroke:#FFFFFF;stroke-width:1.5;stroke-linecap:square;stroke-dasharray:1,2.7;}
</style>
<g id="icon_x2F_candles-copy" transform="translate(0.500000, 0.000000)">
	<rect id="rect4217" y="9.1" width="6.8" height="14"/>
	<path id="line4219" class="st0" d="M3.4,4.2V28"/>
	<rect id="rect4221" x="9.6" y="4.3" width="6.8" height="13.2"/>
	<path id="line4223" class="st0" d="M13,0v23.8"/>
	<rect id="rect4225" x="19.2" y="9.1" width="6.8" height="14"/>
	<path id="line4227" class="st0" d="M22.6,4.2V28"/>
</g>
<g id="Group-29-Copy-2" transform="translate(1.500000, 33.000000)">
	<g id="Group-28" transform="translate(8.500000, 0.000000)">
		<path id="Line-6" class="st1" d="M3.5,4.9H0.2"/>
		<path id="Line-6-Copy" class="st1" d="M6.8,18.1H3.5"/>
		<path id="Line-5" class="st1" d="M3.5,1v20.9"/>
	</g>
	<g id="Group-28-Copy" transform="translate(0.500000, 4.000000)">
		<path id="Line-6_00000161620664685838256160000003750276357038253746_" class="st1" d="M3.5,3.9H0.2"/>
		<path id="Line-6-Copy_00000183218466983464832310000008069390071473364395_" class="st1" d="M6.8,17.1H3.5"/>
		<path id="Line-5_00000037689804122685759530000012987412588135560853_" class="st1" d="M3.5,0v20.9"/>
	</g>
	<g id="Group-28-Copy-2" transform="translate(16.500000, 4.000000)">
		<path id="Line-6_00000009561715953494214160000002808079777645128336_" class="st1" d="M3.5,3.9H0.2"/>
		<path id="Line-6-Copy_00000173843355453097483540000015571312956224677023_" class="st1" d="M6.8,17.1H3.5"/>
		<path id="Line-5_00000161623559443238648430000015358783959085957792_" class="st1" d="M3.5,0v20.9"/>
	</g>
</g>
<g id="Group-29-Copy-2_00000039819636772608090020000013067344541384127624_" transform="translate(1.500000, 65.000000)">
	<g id="Group-28_00000125576491316423543260000016794719423326649240_" transform="translate(8.500000, 0.000000)">
		<path id="Line-6_00000083775576802578144630000014014425692580765610_" class="st1" d="M3.5,3.9H0.2"/>
		<path id="Line-6-Copy_00000149363420600665997660000008628154803154892701_" class="st1" d="M6.8,17.1H3.5"/>
		<path id="Line-5_00000008139909142554130020000012860063122946139571_" class="st1" d="M3.5,0v20.9"/>
	</g>
	<g id="Group-28-Copy_00000094581574845135355010000005060117621707478442_" transform="translate(0.500000, 4.000000)">
		<path id="Line-6_00000047740988533337993460000017523585130289129365_" class="st1" d="M3.5,3.7H0.2"/>
		<path id="Line-6-Copy_00000133526175820327552160000004119038229283117745_" class="st1" d="M7.1,17.1H3.5"/>
		<path class="st2" d="M3.5,0v19.1V0z"/>
	</g>
	<g id="Group-28-Copy-2_00000183248837911895181280000010564542413702713753_" transform="translate(16.500000, 4.000000)">
		<path id="Line-6_00000159470500737962690080000009185615870767931807_" class="st1" d="M3.5,3.7H0.2"/>
		<path id="Line-6-Copy_00000176000959976332373540000001038835615149732225_" class="st1" d="M7,17.1H3.5"/>
		<path class="st2" d="M3.5,0v19.1V0z"/>
	</g>
</g>
<path id="Path-Copy" class="st0" d="M27,117l-9.2-14l0,0l-6.5,8.4c-2.1-2.5-3.2-3.8-3.2-3.8c-3,4-5.3,6.9-6.8,8.9
	c-0.1,0.1-0.2,0.3-0.4,0.5"/>
<path id="Path-Copy_00000104674932065951327210000011414484121965546906_" class="st3" d="M27.2,611.8l-9.2-14l0,0l-6.5,8.4
	c-2.1-2.5-3.2-3.8-3.2-3.8c-3,4-5.3,6.9-6.8,8.9c-0.1,0.1-0.2,0.3-0.4,0.5"/>
<path id="Path-Copy_00000083796242867575017480000001365725659868136834_" class="st4" d="M67.2,612L58,598l0,0l-6.5,8.4
	c-2.1-2.5-3.2-3.8-3.2-3.8c-3,4-5.3,6.9-6.8,8.9c-0.1,0.1-0.2,0.3-0.4,0.5"/>
<g id="Group-Copy" transform="translate(-0.500000, 128.500000)">
	<path id="line4219_00000080195595277126010150000002742251819739321241_" class="st0" d="M4,1.5v4.4"/>
	<path id="line4219-copy-2" class="st0" d="M14-3.5v4.4"/>
	<path id="line4219-copy-4" class="st0" d="M24,1.5v4.4"/>
	<path id="line4219-copy-5" class="st0" d="M24,18.5v5"/>
	<path id="line4219-copy-3" class="st0" d="M14,13.5v5"/>
	<path id="line4219-copy" class="st0" d="M4,18.5v5"/>
	<rect id="rect4217_00000068642432621728117770000018376652452557992332_" x="1" y="6" class="st0" width="6" height="12"/>
	<rect id="rect4221_00000085219072730310815850000003456247596562475153_" x="11" y="1" class="st0" width="6" height="12"/>
	<rect id="rect4225_00000147218619630117183960000006880043680847336603_" x="21" y="6" class="st0" width="6" height="12"/>
</g>
<path id="Path-Copy_00000067948938399262712720000013512504588565151877_" d="M17.8,162.6l-6.5,8.4c-2.1-2.5-3.2-3.8-3.2-3.8
	L1,176.6h26L17.8,162.6z"/>
<g>
	<g>
		<path class="st5" d="M11.7,670.2L11.7,670.2L11.7,670.2z"/>
		<path class="st5" d="M11.8,671.8l-0.4-0.5c-1.4-1.6-2.3-2.7-2.8-3.3l-6.1,8.1h24.1l-8.3-12.6L11.8,671.8z"/>
		<rect x="20.5" y="663.7" transform="matrix(0.8358 -0.5491 0.5491 0.8358 -361.6848 120.6824)" width="0.8" height="2.5"/>
		<rect x="22.7" y="667.1" transform="matrix(0.8358 -0.5491 0.5491 0.8358 -363.1969 122.4575)" width="0.8" height="2.5"/>
		<path d="M1.4,674.4L0.9,675c0,0,0,0.1-0.1,0.1l-0.5,0.5l0.7,0.7l1-1.4L1.4,674.4z"/>
		<rect x="14.5" y="664" transform="matrix(0.6119 -0.791 0.791 0.6119 -519.4107 270.3108)" width="2.5" height="0.8"/>
		<polygon points="19,662.9 19.7,662.5 18.3,660.3 17,662 17.7,662.5 18.3,661.7 		"/>
		<rect x="24.9" y="670.4" transform="matrix(0.8358 -0.5491 0.5491 0.8358 -364.642 124.2017)" width="0.8" height="2.5"/>
		<rect x="27.1" y="673.8" transform="matrix(0.8358 -0.5491 0.5491 0.8358 -366.1541 125.9768)" width="0.8" height="2.5"/>
		<path d="M11.7,670.2l0.5-0.7l-1.5-1.8l-0.7,0.6C10.5,668.8,11.1,669.4,11.7,670.2L11.7,670.2z"/>
		<polygon points="6.2,668.1 4.7,670.1 5.4,670.6 6.9,668.6 		"/>
		<rect x="12" y="667.1" transform="matrix(0.6119 -0.791 0.791 0.6119 -522.8402 269.5623)" width="2.5" height="0.8"/>
		<path d="M8.9,666.9c0,0,0.1,0.1,0.2,0.3l0.7-0.6L8.5,665l-1.4,1.9l0.7,0.5l0.8-1L8.9,666.9z"/>
		<polygon points="3.8,671.3 2.2,673.2 2.9,673.8 4.4,671.8 		"/>
		<path class="st5" d="M26.4,674.2l-0.8-1.3l-1.4-2.1l-0.8-1.3l-1.4-2.1l-0.8-1.3l-1.4-2.1l-0.8-1.3l-0.8-1.2l-0.6,0.7l-0.9,1.2
			l-1.5,2l-0.9,1.2l-1.5,2l-0.5,0.7l-0.5,0.7l0,0l0,0c-0.6-0.8-1.2-1.4-1.6-1.9c-0.4-0.5-0.8-0.9-1-1.1c-0.1-0.2-0.2-0.3-0.2-0.3
			l-0.4-0.5l-0.8,1l-0.9,1.2l-1.5,2l-0.9,1.2l-1.5,2L2,675l-1,1.4l-0.6,0.8h27.9l-0.5-0.8L26.4,674.2z M2.4,676.1l6.1-8.1
			c0.5,0.6,1.4,1.7,2.8,3.3l0.4,0.5l6.5-8.3l8.3,12.6H2.4z"/>
	</g>
	<path d="M18.2,663.5l-6.5,8.3l-0.4-0.5c-1.4-1.6-2.3-2.7-2.8-3.3l-6.1,8.1h24.1L18.2,663.5z"/>
</g>
<g>
	<g>
		<path class="st5" d="M51.5,670.2L51.5,670.2L51.5,670.2z"/>
		<path class="st5" d="M51.6,671.8l-0.4-0.5c-1.4-1.6-2.3-2.7-2.8-3.3l-6.1,8.1h24.1L58,663.5L51.6,671.8z"/>
		
			<rect x="60.3" y="663.7" transform="matrix(0.8358 -0.5491 0.5491 0.8358 -355.1484 142.5365)" class="st6" width="0.8" height="2.5"/>
		
			<rect x="62.5" y="667.1" transform="matrix(0.8358 -0.5491 0.5491 0.8358 -356.6606 144.3116)" class="st6" width="0.8" height="2.5"/>
		<path class="st6" d="M41.2,674.4l-0.5,0.6c0,0,0,0.1-0.1,0.1l-0.5,0.5l0.7,0.7l1-1.4L41.2,674.4z"/>
		
			<rect x="54.3" y="664" transform="matrix(0.6119 -0.791 0.791 0.6119 -503.9616 301.7928)" class="st6" width="2.5" height="0.8"/>
		<polygon class="st6" points="58.8,662.9 59.5,662.5 58.1,660.3 56.8,662 57.5,662.5 58.1,661.7 		"/>
		
			<rect x="64.7" y="670.4" transform="matrix(0.8358 -0.5491 0.5491 0.8358 -358.1056 146.0558)" class="st6" width="0.8" height="2.5"/>
		
			<rect x="66.9" y="673.8" transform="matrix(0.8358 -0.5491 0.5491 0.8358 -359.6177 147.8309)" class="st6" width="0.8" height="2.5"/>
		<path class="st6" d="M51.5,670.2l0.5-0.7l-1.5-1.8l-0.7,0.6C50.3,668.8,50.9,669.4,51.5,670.2L51.5,670.2z"/>
		<polygon class="st6" points="46,668.1 44.5,670.1 45.2,670.6 46.7,668.6 		"/>
		
			<rect x="51.8" y="667.1" transform="matrix(0.6119 -0.791 0.791 0.6119 -507.3911 301.0442)" class="st6" width="2.5" height="0.8"/>
		<path class="st6" d="M48.7,666.9c0,0,0.1,0.1,0.2,0.3l0.7-0.6l-1.3-1.6l-1.4,1.9l0.7,0.5l0.8-1L48.7,666.9z"/>
		<polygon class="st6" points="43.6,671.3 42,673.2 42.7,673.8 44.2,671.8 		"/>
		<path class="st5" d="M66.3,674.2l-0.8-1.3l-1.4-2.1l-0.8-1.3l-1.4-2.1l-0.8-1.3l-1.4-2.1l-0.8-1.3l-0.8-1.2l-0.6,0.7l-0.9,1.2
			l-1.5,2l-0.9,1.2l-1.5,2l-0.5,0.7l-0.5,0.7l0,0l0,0c-0.6-0.8-1.2-1.4-1.6-1.9c-0.4-0.5-0.8-0.9-1-1.1c-0.1-0.2-0.2-0.3-0.2-0.3
			l-0.4-0.5l-0.8,1l-0.9,1.2l-1.5,2l-0.9,1.2l-1.5,2l-0.9,1.2l-1,1.4l-0.6,0.8h27.9l-0.5-0.8L66.3,674.2z M42.2,676.1l6.1-8.1
			c0.5,0.6,1.4,1.7,2.8,3.3l0.4,0.5l6.5-8.3l8.3,12.6H42.2z"/>
	</g>
	<path class="st6" d="M58,663.5l-6.5,8.3l-0.4-0.5c-1.4-1.6-2.3-2.7-2.8-3.3l-6.1,8.1h24.1L58,663.5z"/>
</g>
<g id="Group-3-Copy" transform="translate(0.000000, 195.500000)">
	<path id="Line-7-Copy" class="st7" d="M1.1,7.9H27"/>
	<path id="Shape" d="M2.3,10.8c-0.5,0.6-1.2,1.7-2.3,3.1h28l-2-3.1 M24,4.1l-5.9-8.2l0,0l-7,8.2C8.8,1.3,7.7,0,7.7,0
		C6.3,1.8,5.3,3.2,4.6,4.1"/>
</g>
<g id="Group-Copy-3" transform="translate(5.000000, 225.000000)">
	<path id="line4219_00000140722794048460719790000014599939217998462342_" class="st0" d="M2,3v3.5"/>
	<path id="line4219-copy-2_00000125574725351768869080000012389387215201685662_" class="st0" d="M12.3-4.8v4"/>
	<path id="line4219-copy-3_00000044896921590125016650000016753132539267575468_" class="st0" d="M12.3,10.2v4"/>
	<path id="line4219-copy_00000105401634350846469350000014354052518270682548_" class="st0" d="M2,15v4"/>
	<rect id="rect4217_00000027576139217695737800000006670436913157994424_" x="-0.5" y="6.5" class="st0" width="5" height="9"/>
	<rect id="rect4221_00000107582452318460960080000002355649111829621136_" x="7.8" y="-0.3" class="st0" width="9" height="10"/>
</g>
<g id="Group-2-Copy" transform="translate(0.000000, 256.000000)">
	<rect id="rect4217_00000162314041120207055050000004908106773092257966_" x="1" width="5" height="12"/>
	<path id="line4219_00000023990061208393207000000005066835148631101109_" class="st0" d="M3.5-4v21"/>
	<rect id="rect4221_00000164489237789838363360000001064344811846471359_" x="8" y="-4" width="5" height="11"/>
	<path id="line4223_00000118391257347643902870000009913619705366850957_" class="st0" d="M10.5-7v19"/>
	<rect id="rect4225_00000171681917354309197670000009006641127519156375_" x="15" width="5" height="12"/>
	<rect id="rect4225-copy" x="22" y="5" width="5" height="12"/>
	<path id="line4227_00000074427447001025095740000003404991390356742027_" class="st0" d="M17.5-4v21"/>
	<path id="line4227-copy" class="st0" d="M24.5,0v21"/>
</g>
<g id="Group-31-Copy" transform="translate(3.500000, 288.500000)">
	<rect id="Rectangle-Copy-22" y="3.5" class="st8" width="4" height="6"/>
	<rect id="Rectangle-Copy-25" x="16" y="-1.5" class="st8" width="4" height="11"/>
	<rect id="Rectangle-Copy-23" x="4" y="9.5" class="st8" width="4" height="5"/>
	<rect id="Rectangle-Copy-27" x="8" y="-7.5" class="st8" width="4" height="17"/>
	<rect id="Rectangle-Copy-26" x="12" y="9.5" class="st8" width="4" height="9"/>
</g>
<g id="Group-32-Copy-2" transform="translate(0.500000, 320.000000)">
	<rect id="rect4217_00000139254639538814581200000016641197963474778532_" x="0.5" y="-2.8" width="7" height="6.2"/>
	<path id="line4219_00000086655294205702658290000012658994266066283447_" class="st0" d="M3.9-2.7v16.3"/>
	<path id="line4219_00000152251884231354323980000011913334806138420873_" class="st0" d="M13.1-8.1V8.8"/>
	<rect id="rect4221_00000101083860503689932890000005387124721384839558_" x="9.6" y="-2.7" width="7" height="11.6"/>
	<rect id="rect4225_00000105428960596045732110000006138598006815060666_" x="18.5" y="-4.6" width="7" height="13.6"/>
	<path id="line4227_00000135672669227030993370000012553646435518612394_" class="st0" d="M22.1-4.1v16.3"/>
</g>
<g id="Group-32-Copy-2_00000003805004891606802760000013139023512855906695_" transform="translate(0.500000, 320.000000)">
	<rect id="rect4217_00000161597929756693788180000011132446624625452956_" x="41" y="-2.8" class="st6" width="7" height="6.2"/>
	<path id="line4219_00000136383910734428150070000017201058938775491740_" class="st9" d="M44.4-2.7v16.3"/>
	<path id="line4219_00000117652207945516241300000010594530557967951796_" class="st9" d="M53.6-8.1V8.8"/>
	<rect id="rect4221_00000031208331356052931310000016166315148089535163_" x="50.1" y="-2.7" class="st6" width="7" height="11.6"/>
	<rect id="rect4225_00000137090583716826835820000001460590477221732776_" x="59" y="-4.6" class="st6" width="7" height="13.6"/>
	<path id="line4227_00000060713740663920340140000013004489226447673231_" class="st9" d="M62.6-4.1v16.3"/>
</g>
<polyline id="Path-2-Copy" class="st1" points="1.5,368.5 1.5,343.5 6.8,343.5 6.8,368.5 12.1,368.5 12.1,354.5 17.4,354.5 
	17.4,368.5 22,368.5 22,347.7 26.5,347.7 26.5,368.5 "/>
<g id="Group-30-Copy" transform="translate(0.500000, 385.000000)">
	
		<rect id="Rectangle-Copy-22_00000132768170804227316940000007914550957698438319_" x="10.5" y="2" class="st8" width="5" height="13"/>
	
		<rect id="Rectangle-Copy-25_00000090986380318699040550000000601526549291718044_" x="0.5" y="2" class="st8" width="5" height="13"/>
	
		<rect id="Rectangle-Copy-23_00000098222111158076216960000001517682179484738721_" x="15.5" y="-11" class="st8" width="5" height="13"/>
	
		<rect id="Rectangle-Copy-26_00000091001166030250404760000010165731808454324882_" x="5.5" y="-11" class="st8" width="5" height="13"/>
	<rect id="Rectangle-Copy-24" x="20.5" y="2" class="st8" width="5" height="13"/>
</g>
<g>
	<g>
		<g>
			<g>
				<g>
					<g>
						<defs>
							<path id="SVGID_1_" d="M22.4,565l-2.8-1.1l0,0l2.8-1.1V561l-3.9,2l-3.9-1.9v1.8l2.7,1.1l0,0l-2.7,1v1.8l3.9-1.9l3.9,1.9
								C22.4,566.8,22.4,565,22.4,565z M22.4,571l-2.8-1.1l0,0l2.8-1.1V567l-3.9,2l-3.9-1.9v1.8l2.7,1.1l0,0l-2.7,1v1.8l3.9-1.9
								l3.9,1.9C22.4,572.8,22.4,571,22.4,571z M22.4,577.1l-2.8-1.1l0,0l2.8-1.1V573l-3.9,2l-3.9-1.9v1.8l2.7,1.1l0,0l-2.7,1v1.8
								l3.9-1.9l3.9,1.9C22.4,578.8,22.4,577.1,22.4,577.1z M22.4,583.1l-2.8-1.1l0,0l2.8-1.1v-1.8l-3.9,2l-3.9-1.9v1.8l2.7,1.1l0,0
								l-2.7,1v1.8l3.9-1.9l3.9,1.9C22.4,584.9,22.4,583.1,22.4,583.1z"/>
						</defs>
						<clipPath id="SVGID_00000106827109188675334780000012146077085935967360_">
							<use xlink:href="#SVGID_1_"  style="overflow:visible;"/>
						</clipPath>
						<g style="clip-path:url(#SVGID_00000106827109188675334780000012146077085935967360_);">
							<g>
								<g>
									<g>
										<g>
											<defs>
												<rect id="SVGID_00000040557850244881492090000017140206161546085522_" x="-0.5" y="-17" width="28" height="603"/>
											</defs>
											<clipPath id="SVGID_00000127743171315147642090000007674454604889970836_">
												<use xlink:href="#SVGID_00000040557850244881492090000017140206161546085522_"  style="overflow:visible;"/>
											</clipPath>
											
												<rect x="13.6" y="559.9" style="clip-path:url(#SVGID_00000127743171315147642090000007674454604889970836_);" width="9.8" height="26"/>
										</g>
									</g>
								</g>
							</g>
						</g>
					</g>
				</g>
			</g>
		</g>
	</g>
	<g>
		<g>
			<g>
				<g>
					<g>
						<defs>
							<path id="SVGID_00000181060425156170050140000010341035944698694057_" d="M11.3,569.7c0,0.4-0.1,0.7-0.4,0.9
								c-0.3,0.2-0.7,0.3-1.3,0.3H7.4c-0.6,0-1-0.1-1.3-0.3c-0.3-0.2-0.4-0.5-0.4-0.9s0.1-0.7,0.4-0.9s0.7-0.3,1.3-0.3h2.2
								c0.6,0,1,0.1,1.3,0.3S11.3,569.3,11.3,569.7z M12.5,569.7c0-0.8-0.3-1.5-0.8-2s-1.2-0.7-2.1-0.7H7.4c-0.9,0-1.6,0.3-2.1,0.8
								s-0.8,1.2-0.8,2s0.3,1.5,0.8,2s1.2,0.7,2.1,0.7h2.2c0.9,0,1.6-0.2,2.1-0.7C12.2,571.2,12.5,570.6,12.5,569.7z M11.3,576
								c0,0.4-0.1,0.7-0.4,0.9c-0.3,0.2-0.7,0.3-1.3,0.3H7.4c-0.6,0-1-0.1-1.3-0.3c-0.3-0.2-0.4-0.5-0.4-0.9s0.1-0.7,0.4-0.9
								s0.7-0.3,1.3-0.3h2.2c0.6,0,1,0.1,1.3,0.3S11.3,575.6,11.3,576z M12.5,576c0-0.8-0.3-1.5-0.8-2s-1.2-0.7-2.1-0.7H7.4
								c-0.9,0-1.6,0.3-2.1,0.8s-0.8,1.2-0.8,2s0.3,1.5,0.8,2s1.2,0.7,2.1,0.7h2.2c0.9,0,1.6-0.2,2.1-0.7
								C12.2,577.5,12.5,576.8,12.5,576z M11.3,582.3c0,0.4-0.1,0.7-0.4,0.9s-0.7,0.3-1.3,0.3H7.4c-0.6,0-1-0.1-1.3-0.3
								s-0.4-0.5-0.4-0.9s0.1-0.7,0.4-0.9s0.7-0.3,1.3-0.3h2.2c0.6,0,1,0.1,1.3,0.3S11.3,581.9,11.3,582.3z M12.5,582.3
								c0-0.8-0.3-1.5-0.8-2s-1.2-0.7-2.1-0.7H7.4c-0.9,0-1.6,0.3-2.1,0.8s-0.8,1.2-0.8,2s0.3,1.5,0.8,2s1.2,0.7,2.1,0.7h2.2
								c0.9,0,1.6-0.2,2.1-0.7C12.2,583.8,12.5,583.1,12.5,582.3z"/>
						</defs>
						<clipPath id="SVGID_00000098200530356106026410000003372156901892686268_">
							<use xlink:href="#SVGID_00000181060425156170050140000010341035944698694057_"  style="overflow:visible;"/>
						</clipPath>
						<g style="clip-path:url(#SVGID_00000098200530356106026410000003372156901892686268_);">
							<g>
								<g>
									<g>
										<g>
											<defs>
												<rect id="SVGID_00000075849607658595258280000001193998250107760799_" x="-0.5" y="-17" width="28" height="603"/>
											</defs>
											<clipPath id="SVGID_00000030479242008207635850000015702165668766542519_">
												<use xlink:href="#SVGID_00000075849607658595258280000001193998250107760799_"  style="overflow:visible;"/>
											</clipPath>
											
												<rect x="3.5" y="566" style="clip-path:url(#SVGID_00000030479242008207635850000015702165668766542519_);" width="10" height="20"/>
										</g>
									</g>
								</g>
							</g>
						</g>
					</g>
				</g>
			</g>
		</g>
	</g>
</g>
<g>
	<circle cx="8.4" cy="508" r="1.9"/>
	<g>
		<circle cx="2.4" cy="516" r="1.9"/>
		<path d="M13.4,510.1c1,0,1.9,0.9,1.9,1.9s-0.9,1.9-1.9,1.9s-1.9-0.9-1.9-1.9S12.4,510.1,13.4,510.1z"/>
		<circle cx="17.5" cy="504" r="1.9"/>
		<circle cx="25.5" cy="516" r="1.9"/>
	</g>
</g>
<path d="M25.4,421.5c-0.2,0-0.4,0-0.6,0.1l-6-9c0.3-0.3,0.5-0.8,0.5-1.2c0-1.1-0.9-1.9-1.9-1.9c-1.1,0-1.9,0.9-1.9,1.9
	c0,0.5,0.2,1,0.6,1.4l-2.5,4.7c-0.1,0-0.2,0-0.2,0c-0.5,0-0.9,0.2-1.3,0.5l-1.9-1.8c0.1-0.2,0.1-0.4,0.1-0.7c0-1.1-0.9-1.9-1.9-1.9
	l0,0l0,0c-1.1,0-1.9,0.9-1.9,1.9c0,0.5,0.2,0.9,0.5,1.2c-1.4,1.8-2.8,3.7-3.8,5c-0.2-0.1-0.5-0.1-0.7-0.1c-1.1,0-1.9,0.9-1.9,1.9
	c0,1.1,0.9,1.9,1.9,1.9s1.9-0.9,1.9-1.9c0-0.4-0.2-0.8-0.4-1.2c0.8-1.1,2.1-2.7,3.8-5c0.2,0.1,0.4,0.1,0.6,0.1l0,0l0,0
	c0.4,0,0.9-0.2,1.2-0.4l2,1.9c0,0.2-0.1,0.3-0.1,0.5c0,1.1,0.9,1.9,1.9,1.9c1.1,0,1.9-0.9,1.9-1.9c0-0.6-0.3-1.1-0.7-1.5l2.5-4.6
	c0.1,0,0.3,0.1,0.4,0.1c0.2,0,0.4,0,0.6-0.1l6,9c-0.3,0.3-0.4,0.7-0.4,1.2c0,1.1,0.9,1.9,1.9,1.9c1.1,0,1.9-0.9,1.9-1.9
	C27.3,422.4,26.4,421.5,25.4,421.5z"/>
<g>
	<g>
		<g>
			<g>
				<rect id="SVGID_00000006674584822862507020000010955378954556201346_" x="21.8" y="529.8" width="5" height="24"/>
			</g>
		</g>
	</g>
	<g>
		<g>
			<g>
				<rect id="SVGID_00000116206860428890069150000011609394878348896673_" x="14.8" y="535.8" width="5" height="18"/>
			</g>
		</g>
	</g>
	<g>
		<g>
			<g>
				<rect id="SVGID_00000162313376057006549300000005256377958960226704_" x="7.8" y="541.8" width="5" height="12"/>
			</g>
		</g>
	</g>
	<g>
		<g>
			<g>
				<rect id="SVGID_00000139972203384178558310000000845982521972582843_" x="0.8" y="547.8" width="5" height="6"/>
			</g>
		</g>
	</g>
</g>
<polyline class="st0" points="1.9,461.5 1.9,438.8 7,438.8 7,446.8 12,446.8 12,456.8 16.9,456.8 16.9,450 21.1,450 21.1,437.1 
	25.2,437.1 25.2,461.5 "/>
<polyline points="2.9,901 2.9,878.3 8,878.3 8,886.3 13,886.3 13,896.3 17.9,896.3 17.9,889.5 22.1,889.5 22.1,876.6 26.2,876.6 
	26.2,901 "/>
<polyline class="st6" points="42.5,901 42.5,878.3 47.6,878.3 47.6,886.3 52.6,886.3 52.6,896.3 57.5,896.3 57.5,889.5 61.7,889.5 
	61.7,876.6 65.8,876.6 65.8,901 "/>
<g>
	<polygon points="3.1,932.1 3.1,909.8 8.2,909.8 8.2,917.7 13.2,917.7 13.2,927.5 18.1,927.5 18.1,920.8 22.3,920.8 22.3,908.2 
		26.4,908.2 26.4,932.1 	"/>
	<g>
		<polyline class="st1" points="4.1,932.1 3.1,932.1 3.1,931.1 		"/>
		<line class="st14" x1="3.1" y1="927.8" x2="3.1" y2="912.5"/>
		<polyline class="st1" points="3.1,910.8 3.1,909.8 4.1,909.8 		"/>
		<polyline class="st1" points="7.2,909.8 8.2,909.8 8.2,910.8 		"/>
		<line class="st15" x1="8.2" y1="913" x2="8.2" y2="915.6"/>
		<polyline class="st1" points="8.2,916.7 8.2,917.7 9.2,917.7 		"/>
		<polyline class="st1" points="12.2,917.7 13.2,917.7 13.2,918.7 		"/>
		<line class="st16" x1="13.2" y1="921.6" x2="13.2" y2="925.1"/>
		<polyline class="st1" points="13.2,926.5 13.2,927.5 14.2,927.5 		"/>
		<polyline class="st1" points="17.1,927.5 18.1,927.5 18.1,926.5 		"/>
		<line class="st17" x1="18.1" y1="924.8" x2="18.1" y2="922.7"/>
		<polyline class="st1" points="18.1,921.8 18.1,920.8 19.1,920.8 		"/>
		<polyline class="st1" points="21.3,920.8 22.3,920.8 22.3,919.8 		"/>
		<line class="st18" x1="22.3" y1="917.4" x2="22.3" y2="910.4"/>
		<polyline class="st1" points="22.3,909.2 22.3,908.2 23.3,908.2 		"/>
		<polyline class="st1" points="25.4,908.2 26.4,908.2 26.4,909.2 		"/>
		<line class="st19" x1="26.4" y1="912" x2="26.4" y2="929.7"/>
		<polyline class="st1" points="26.4,931.1 26.4,932.1 25.4,932.1 		"/>
		<line class="st20" x1="22.6" y1="932.1" x2="5.5" y2="932.1"/>
	</g>
</g>
<g>
	<polygon class="st6" points="42.5,932.3 42.5,909.9 47.6,909.9 47.6,917.8 52.6,917.8 52.6,927.6 57.5,927.6 57.5,921 61.7,921 
		61.7,908.3 65.8,908.3 65.8,932.3 	"/>
	<g>
		<polyline class="st21" points="43.5,932.3 42.5,932.3 42.5,931.3 		"/>
		<line class="st22" x1="42.5" y1="927.9" x2="42.5" y2="912.6"/>
		<polyline class="st21" points="42.5,910.9 42.5,909.9 43.5,909.9 		"/>
		<polyline class="st21" points="46.6,909.9 47.6,909.9 47.6,910.9 		"/>
		<line class="st23" x1="47.6" y1="913.1" x2="47.6" y2="915.7"/>
		<polyline class="st21" points="47.6,916.8 47.6,917.8 48.6,917.8 		"/>
		<polyline class="st21" points="51.6,917.8 52.6,917.8 52.6,918.8 		"/>
		<line class="st24" x1="52.6" y1="921.7" x2="52.6" y2="925.2"/>
		<polyline class="st21" points="52.6,926.6 52.6,927.6 53.6,927.6 		"/>
		<polyline class="st21" points="56.5,927.6 57.5,927.6 57.5,926.6 		"/>
		<line class="st25" x1="57.5" y1="924.9" x2="57.5" y2="922.8"/>
		<polyline class="st21" points="57.5,922 57.5,921 58.5,921 		"/>
		<polyline class="st21" points="60.7,921 61.7,921 61.7,920 		"/>
		<line class="st26" x1="61.7" y1="917.5" x2="61.7" y2="910.5"/>
		<polyline class="st21" points="61.7,909.3 61.7,908.3 62.7,908.3 		"/>
		<polyline class="st21" points="64.8,908.3 65.8,908.3 65.8,909.3 		"/>
		<line class="st27" x1="65.8" y1="912.1" x2="65.8" y2="929.8"/>
		<polyline class="st21" points="65.8,931.3 65.8,932.3 64.8,932.3 		"/>
		<line class="st28" x1="62.1" y1="932.3" x2="44.9" y2="932.3"/>
	</g>
</g>
<g id="Group-3-Copy_00000008845841067362897950000010859172616492444562_" transform="translate(0.000000, 195.500000)">
	<path id="Line-7-Copy_00000140728527776497073960000006827590843790431642_" class="st7" d="M1,631.2h25.9"/>
	<path id="Shape_00000007404268757685073930000017780373185485953964_" d="M20.6,621.8l-4.4,5.5h8.7L20.6,621.8z"/>
	<path id="Shape_00000029021210405756111310000016351317929871442570_" d="M8.4,639.5l4.4-5.5H4.1L8.4,639.5z"/>
</g>
<g id="Group-3-Copy_00000092416009093719675100000000940270412153940100_" transform="translate(0.000000, 195.500000)">
	<path id="Line-7-Copy_00000106106662283293425310000002745257964586626486_" class="st29" d="M41.2,631.2h25.9"/>
	<path id="Shape_00000070108496720926770010000016959767033893729465_" class="st6" d="M60.8,621.8l-4.4,5.5h8.7L60.8,621.8z"/>
	<path id="Shape_00000124882816893157337960000001883547737977495470_" class="st6" d="M48.6,639.5L53,634h-8.7L48.6,639.5z"/>
</g>
<g>
	<path id="Line-7-Copy_00000085960762461927467260000006527139189542126742_" class="st7" d="M1.4,1114c0,0,5-4,12.4-3.6
		c6.1,0.3,13.5-2.6,13.5-2.6"/>
	<path id="Shape_00000030479885012598581310000006008275612371443609_" class="st30" d="M14.4,1121.7c0,0,3.7-4.6,11.7-10.3
		c-8.2,1.5-7.9,2.5-14.1,2.6c-4.2,0.1-9.2,3.4-9.2,3.4L14.4,1121.7z"/>
	<path id="Shape_00000183956663462132149420000013284851320058906242_" d="M16,1098.5c0,0-6.5,4.9-14.5,10.7
		c7.7-2.6,10.7-2.9,16.9-2.9c5.4,0,9.2-3.4,9.2-3.4L16,1098.5z"/>
</g>
<path id="Line-7-Copy_00000077293846481232471200000004383743554645322112_" class="st29" d="M41.2,1114c0,0,5-4,12.4-3.6
	c6.1,0.3,13.5-2.6,13.5-2.6"/>
<path id="Shape_00000092427073700132541930000011832032405691344830_" class="st31" d="M54.1,1121.7c0,0,3.7-4.6,11.7-10.3
	c-8.2,1.5-7.9,2.5-14.1,2.6c-4.2,0.1-9.2,3.4-9.2,3.4L54.1,1121.7z"/>
<path id="Shape_00000113340214982312230080000004204724815110289318_" class="st6" d="M55.6,1098.5c0,0-6.5,4.9-14.5,10.7
	c7.7-2.6,10.7-2.9,16.9-2.9c5.4,0,9.2-3.4,9.2-3.4L55.6,1098.5z"/>
<g id="Group-29-Copy-2_00000129167424912100665060000005759311998485364612_" transform="translate(1.500000, 65.000000)">
	<g id="Group-28_00000087410040506257121610000016204062339456595884_" transform="translate(8.500000, 0.000000)">
		<path id="Line-6_00000083068296973907623550000015148676395758606526_" class="st1" d="M3.5,406.7"/>
		<path id="Line-6-Copy_00000139260258688661034900000002801392593936732336_" class="st1" d="M6.8,407.9H3.5"/>
		<path id="Line-5_00000174572092870155829230000011562096319137660049_" class="st1" d="M3.5,402.8v20.9"/>
	</g>
	<g id="Group-28-Copy_00000081636645041543390100000012464494476655894188_" transform="translate(0.500000, 4.000000)">
		<path id="Line-6_00000039825720270147263260000011353063058351415174_" class="st1" d="M3.5,406.5"/>
		<path id="Line-6-Copy_00000018935687398989130010000005605723797776872354_" class="st1" d="M7.1,419.9H3.5"/>
		<line class="st2" x1="3.5" y1="421.9" x2="3.5" y2="402.8"/>
	</g>
	<g id="Group-28-Copy-2_00000031209873005115280480000006035557667599253683_" transform="translate(16.500000, 4.000000)">
		<path id="Line-6_00000039134337626033381150000016961658165353691822_" class="st1" d="M3.5,406.5"/>
		<path id="Line-6-Copy_00000142890504291560134010000011098355643462718866_" class="st1" d="M7,419.9H3.5"/>
		<path class="st2" d="M3.5,402.8v19.1V402.8z"/>
	</g>
</g>
<g id="Group-29-Copy-2_00000029028536200206967030000007501477275399893164_" transform="translate(1.500000, 65.000000)">
	<g id="Group-28_00000072245252651782607450000017141793304678059421_" transform="translate(8.500000, 0.000000)">
		<path id="Line-6_00000055683698043445124030000010000141973598797491_" class="st1" d="M3.5,784.6"/>
		<path id="Line-6-Copy_00000001655577328320423700000012336943480856009101_" class="st1" d="M6.8,785.8H3.5"/>
		<path id="Line-5_00000031899122107839561050000012407845103407640494_" class="st1" d="M3.5,780.7v20.9"/>
	</g>
	<g id="Group-28-Copy_00000090985789786125550860000005819628763328378517_" transform="translate(0.500000, 4.000000)">
		<path id="Line-6_00000035505451373389757970000016292289295029870482_" class="st1" d="M3.5,784.4"/>
		<path id="Line-6-Copy_00000137821429552604793610000002722725085384449938_" class="st1" d="M7.1,797.8H3.5"/>
		<line class="st1" x1="3.5" y1="799.7" x2="3.5" y2="780.7"/>
	</g>
	<g id="Group-28-Copy-2_00000078735536517131106190000005314264793765057164_" transform="translate(16.500000, 4.000000)">
		<path id="Line-6_00000086653543556530785430000010424198943571290761_" class="st1" d="M3.5,784.4"/>
		<path id="Line-6-Copy_00000031179095382990128340000009087574588157821092_" class="st1" d="M7,797.8H3.5"/>
		<path class="st1" d="M3.5,780.7v19.1V780.7z"/>
	</g>
</g>
<g id="Group-29-Copy-2_00000156579553726077843820000004805295556532951483_" transform="translate(1.500000, 65.000000)">
	<g id="Group-28_00000071540962236944290020000018346718043936542337_" transform="translate(8.500000, 0.000000)">
		<path id="Line-6_00000170258153771979031850000013766808970164146562_" class="st21" d="M42.4,784.6"/>
		<path id="Line-6-Copy_00000133513779170903964290000015193619071910801067_" class="st21" d="M45.7,785.8h-3.3"/>
		<path id="Line-5_00000031900529698106622160000003005921982600640920_" class="st21" d="M42.4,780.7v20.9"/>
	</g>
	<g id="Group-28-Copy_00000011724180004711545370000011477004613988561051_" transform="translate(0.500000, 4.000000)">
		<path id="Line-6_00000145022526110882555200000012857222020090544269_" class="st21" d="M42.4,784.4"/>
		<path id="Line-6-Copy_00000111168736956753053280000016160740981479346359_" class="st21" d="M46,797.8h-3.6"/>
		<line class="st21" x1="42.4" y1="799.7" x2="42.4" y2="780.7"/>
	</g>
	<g id="Group-28-Copy-2_00000153666999489911701310000011646458546894779824_" transform="translate(16.500000, 4.000000)">
		<path id="Line-6_00000096744522111840596140000007513980932090715319_" class="st21" d="M42.4,784.4"/>
		<path id="Line-6-Copy_00000094578718594009209480000016893435946569614236_" class="st21" d="M45.9,797.8h-3.5"/>
		<path class="st21" d="M42.4,780.7v19.1V780.7z"/>
	</g>
</g>
<g id="icon_x2F_candles-copy_00000076591496376083332330000017014009759005697667_" transform="translate(0.500000, 0.000000)">
	<rect id="rect4217_00000088114819304176766660000009195541314842545062_" x="40.7" y="9.1" class="st6" width="6.8" height="14"/>
	<path id="line4219_00000091695535680414711900000011185876514512720538_" class="st32" d="M44.1,4.2V28"/>
	
		<rect id="rect4221_00000107577359844511197760000014122330521785062566_" x="50.3" y="4.3" class="st6" width="6.8" height="13.2"/>
	<path id="line4223_00000125583850663567107270000005033606627439081401_" class="st32" d="M53.7,0v23.8"/>
	<rect id="rect4225_00000070830004294832507570000017226987298503003305_" x="59.9" y="9.1" class="st6" width="6.8" height="14"/>
	<path id="line4227_00000129165339512369505300000010391548636063516322_" class="st32" d="M63.3,4.2V28"/>
</g>
<g id="Group-29-Copy-2_00000078043340199803770710000016901925303703532689_" transform="translate(1.500000, 33.000000)">
	<g id="Group-28_00000127029621106140778340000000997814194304098991_" transform="translate(8.500000, 0.000000)">
		<path id="Line-6_00000081650144163109610360000017955366697818415275_" class="st33" d="M44.2,4.9h-3.3"/>
		<path id="Line-6-Copy_00000162316289743007737920000017521493096464807089_" class="st33" d="M47.5,18.1h-3.3"/>
		<path id="Line-5_00000143581346436127719800000001352236490248873380_" class="st33" d="M44.2,1v20.9"/>
	</g>
	<g id="Group-28-Copy_00000031168226060795218740000010189731661150276267_" transform="translate(0.500000, 4.000000)">
		<path id="Line-6_00000018239434892597389670000017092191460264582021_" class="st33" d="M44.2,3.9h-3.3"/>
		<path id="Line-6-Copy_00000163030776079684936970000002797677667967642301_" class="st33" d="M47.5,17.1h-3.3"/>
		<path id="Line-5_00000006680573414707651890000001792698708766961829_" class="st33" d="M44.2,0v20.9"/>
	</g>
	<g id="Group-28-Copy-2_00000121267848853714496670000004527753259522992526_" transform="translate(16.500000, 4.000000)">
		<path id="Line-6_00000113329024290081967090000001673161589955594907_" class="st33" d="M44.2,3.9h-3.3"/>
		<path id="Line-6-Copy_00000083067042725417186380000014100605845167169469_" class="st33" d="M47.5,17.1h-3.3"/>
		<path id="Line-5_00000079481839333138250000000012222017632469665201_" class="st33" d="M44.2,0v20.9"/>
	</g>
</g>
<path id="Path-Copy_00000168109037638218034970000008253617343544072885_" class="st31" d="M67.2,117L58,103l0,0l-6.5,8.4
	c-2.1-2.5-3.2-3.8-3.2-3.8c-3,4-5.3,6.9-6.8,8.9c-0.1,0.1-0.2,0.3-0.4,0.5"/>
<g id="Group-Copy_00000139279501090630853330000018205013546022064060_" transform="translate(-0.500000, 128.500000)">
	<path id="line4219_00000124850831407898260510000013088828778990145411_" class="st32" d="M44.7,1.5v4.4"/>
	<path id="line4219-copy-2_00000018226063408269468440000005981374375625418681_" class="st32" d="M54.7-3.5v4.4"/>
	<path id="line4219-copy-4_00000080177056916697807900000004562544430801736878_" class="st32" d="M64.7,1.5v4.4"/>
	<path id="line4219-copy-5_00000182527758957659072740000003405651789250587806_" class="st32" d="M64.7,18.5v5"/>
	<path id="line4219-copy-3_00000133527569432783380900000010887971515902001584_" class="st32" d="M54.7,13.5v5"/>
	<path id="line4219-copy_00000158734550478588551440000000332681798784404874_" class="st32" d="M44.7,18.5v5"/>
	<rect id="rect4217_00000140693743918152528620000000932754638870828686_" x="41.7" y="6" class="st9" width="6" height="12"/>
	<rect id="rect4221_00000012449726125789008960000016397506931807817385_" x="51.7" y="1" class="st9" width="6" height="12"/>
	<rect id="rect4225_00000062910810758688839800000004795822625835576763_" x="61.7" y="6" class="st9" width="6" height="12"/>
</g>
<path id="Path-Copy_00000112606067879150233650000017485137274897069444_" class="st6" d="M58,162.6l-6.5,8.4
	c-2.1-2.5-3.2-3.8-3.2-3.8l-7.1,9.4h26L58,162.6z"/>
<g id="Group-3-Copy_00000062155769093868668720000007055865141657522610_" transform="translate(0.000000, 195.500000)">
	<path id="Line-7-Copy_00000021106594243189616650000010441921283175535277_" class="st29" d="M41.3,7.9h25.9"/>
	<path id="Shape_00000018916242422712708480000004307517461040860863_" class="st6" d="M42.5,10.8c-0.5,0.6-1.2,1.7-2.3,3.1h28
		l-2-3.1 M64.2,4.1l-5.9-8.2l0,0l-7,8.2C49,1.3,47.9,0,47.9,0c-1.4,1.8-2.4,3.2-3.1,4.1"/>
</g>
<g id="Group-Copy-3_00000113345232847070604470000002898494095748569001_" transform="translate(5.000000, 225.000000)">
	<path id="line4219_00000036238636424091659020000005548111116043626402_" class="st32" d="M43,3v3.5"/>
	<path id="line4219-copy-2_00000157306120866556275930000014972677232764401032_" class="st32" d="M53.3-4.8v4"/>
	<path id="line4219-copy-3_00000029008140926815908460000015162602927577221548_" class="st32" d="M53.3,10.2v4"/>
	<path id="line4219-copy_00000011013156263778033510000006691646269391262894_" class="st32" d="M43,15v4"/>
	<rect id="rect4217_00000169519459528963135160000004742468627346564248_" x="40.5" y="6.5" class="st9" width="5" height="9"/>
	<rect id="rect4221_00000081626848447540648150000016589149413618861985_" x="48.8" y="-0.3" class="st9" width="9" height="10"/>
</g>
<g id="Group-2-Copy_00000018946486862748894900000009535229028087643033_" transform="translate(0.000000, 256.000000)">
	<rect id="rect4217_00000069384642076678404910000008562458966493014444_" x="41.2" class="st6" width="5" height="12"/>
	<path id="line4219_00000041995954511595551740000005696294566840752571_" class="st32" d="M43.7-4v21"/>
	<rect id="rect4221_00000177462353555327301800000007754405325231106218_" x="48.2" y="-4" class="st6" width="5" height="11"/>
	<path id="line4223_00000110447173767769477030000017592125288641060762_" class="st32" d="M50.7-7v19"/>
	<rect id="rect4225_00000129194386083872442140000011564001505456709026_" x="55.2" class="st6" width="5" height="12"/>
	<rect id="rect4225-copy_00000097502157146065159950000000354365347406317452_" x="62.2" y="5" class="st6" width="5" height="12"/>
	<path id="line4227_00000010287024742559836930000013206657258638163105_" class="st32" d="M57.7-4v21"/>
	<path id="line4227-copy_00000065778328188396332850000011040682548321981073_" class="st32" d="M64.7,0v21"/>
</g>
<g id="Group-31-Copy_00000018952390364673099970000016930305694881723776_" transform="translate(3.500000, 288.500000)">
	
		<rect id="Rectangle-Copy-22_00000160909487214542678270000018442918856638091432_" x="40.7" y="3.5" class="st34" width="4" height="6"/>
	
		<rect id="Rectangle-Copy-25_00000165231800583802699960000009060856368070038703_" x="56.7" y="-1.5" class="st34" width="4" height="11"/>
	
		<rect id="Rectangle-Copy-23_00000015342673537237336440000014551584249474532798_" x="44.7" y="9.5" class="st34" width="4" height="5"/>
	
		<rect id="Rectangle-Copy-27_00000150818996641990537110000004107393103406259867_" x="48.7" y="-7.5" class="st34" width="4" height="17"/>
	
		<rect id="Rectangle-Copy-26_00000008132920089120836910000018358756996073141938_" x="52.7" y="9.5" class="st34" width="4" height="9"/>
</g>
<polyline id="Path-2-Copy_00000183250592151697738490000009495694192528717461_" class="st35" points="41.7,368.5 41.7,343.5 
	47,343.5 47,368.5 52.3,368.5 52.3,354.5 57.6,354.5 57.6,368.5 62.2,368.5 62.2,347.7 66.7,347.7 66.7,368.5 "/>
<g id="Group-30-Copy_00000029768535085406048750000016414555697911718834_" transform="translate(0.500000, 385.000000)">
	
		<rect id="Rectangle-Copy-22_00000075160310996101639020000017103278362605388452_" x="51.2" y="2" class="st34" width="5" height="13"/>
	
		<rect id="Rectangle-Copy-25_00000023987246422892497190000013434824423353154444_" x="41.2" y="2" class="st34" width="5" height="13"/>
	
		<rect id="Rectangle-Copy-23_00000017505877585990528670000009354422850137519791_" x="56.2" y="-11" class="st34" width="5" height="13"/>
	
		<rect id="Rectangle-Copy-26_00000169542706409465804120000007332540777194072493_" x="46.2" y="-11" class="st34" width="5" height="13"/>
	
		<rect id="Rectangle-Copy-24_00000065778220180167808800000017976264510053721728_" x="61.2" y="2" class="st34" width="5" height="13"/>
</g>
<g>
	<g>
		<g>
			<g>
				<path id="SVGID_00000155122959362517869060000017436071075550338988_" class="st6" d="M63.1,565l-2.8-1.1l0,0l2.8-1.1V561
					l-3.9,2l-3.9-1.9v1.8L58,564l0,0l-2.7,1v1.8l3.9-1.9l3.9,1.9C63.1,566.8,63.1,565,63.1,565z M63.1,571l-2.8-1.1l0,0l2.8-1.1V567
					l-3.9,2l-3.9-1.9v1.8L58,570l0,0l-2.7,1v1.8l3.9-1.9l3.9,1.9C63.1,572.8,63.1,571,63.1,571z M63.1,577.1l-2.8-1.1l0,0l2.8-1.1
					V573l-3.9,2l-3.9-1.9v1.8L58,576l0,0l-2.7,1v1.8l3.9-1.9l3.9,1.9C63.1,578.8,63.1,577.1,63.1,577.1z M63.1,583.1l-2.8-1.1l0,0
					l2.8-1.1v-1.8l-3.9,2l-3.9-1.9v1.8l2.7,1.1l0,0l-2.7,1v1.8l3.9-1.9l3.9,1.9C63.1,584.9,63.1,583.1,63.1,583.1z"/>
			</g>
			<g>
				<g>
					<g>
						<defs>
							<path id="SVGID_00000127740289000372604700000004492240358514079899_" d="M63.1,565l-2.8-1.1l0,0l2.8-1.1V561l-3.9,2
								l-3.9-1.9v1.8L58,564l0,0l-2.7,1v1.8l3.9-1.9l3.9,1.9C63.1,566.8,63.1,565,63.1,565z M63.1,571l-2.8-1.1l0,0l2.8-1.1V567
								l-3.9,2l-3.9-1.9v1.8L58,570l0,0l-2.7,1v1.8l3.9-1.9l3.9,1.9C63.1,572.8,63.1,571,63.1,571z M63.1,577.1l-2.8-1.1l0,0
								l2.8-1.1V573l-3.9,2l-3.9-1.9v1.8L58,576l0,0l-2.7,1v1.8l3.9-1.9l3.9,1.9C63.1,578.8,63.1,577.1,63.1,577.1z M63.1,583.1
								l-2.8-1.1l0,0l2.8-1.1v-1.8l-3.9,2l-3.9-1.9v1.8l2.7,1.1l0,0l-2.7,1v1.8l3.9-1.9l3.9,1.9C63.1,584.9,63.1,583.1,63.1,583.1z"
								/>
						</defs>
						<clipPath id="SVGID_00000100383137736878152630000013401626995660027327_">
							<use xlink:href="#SVGID_00000127740289000372604700000004492240358514079899_"  style="overflow:visible;"/>
						</clipPath>
						<g style="clip-path:url(#SVGID_00000100383137736878152630000013401626995660027327_);">
							<g>
								<g>
									
										<rect id="SVGID_00000035510068300667490620000013685397489074911374_" x="40.2" y="-17" class="st6" width="28" height="603"/>
								</g>
								<g>
									<g>
										<g>
											<defs>
												<rect id="SVGID_00000098925512847766456490000017617370015391759765_" x="40.2" y="-17" width="28" height="603"/>
											</defs>
											<clipPath id="SVGID_00000170272830539058640540000013575877445017544846_">
												<use xlink:href="#SVGID_00000098925512847766456490000017617370015391759765_"  style="overflow:visible;"/>
											</clipPath>
											
												<rect x="54.3" y="559.9" style="clip-path:url(#SVGID_00000170272830539058640540000013575877445017544846_);fill:#FFFFFF;" width="9.8" height="26"/>
										</g>
									</g>
								</g>
							</g>
						</g>
					</g>
				</g>
			</g>
		</g>
	</g>
	<g>
		<g>
			<g>
				<path id="SVGID_00000142872105663159058670000004106283347500337837_" class="st6" d="M52,569.7c0,0.4-0.1,0.7-0.4,0.9
					c-0.3,0.2-0.7,0.3-1.3,0.3h-2.2c-0.6,0-1-0.1-1.3-0.3s-0.4-0.5-0.4-0.9s0.1-0.7,0.4-0.9c0.3-0.2,0.7-0.3,1.3-0.3h2.2
					c0.6,0,1,0.1,1.3,0.3C51.9,569,52,569.3,52,569.7z M53.2,569.7c0-0.8-0.3-1.5-0.8-2s-1.2-0.7-2.1-0.7h-2.2
					c-0.9,0-1.6,0.3-2.1,0.8s-0.8,1.2-0.8,2s0.3,1.5,0.8,2s1.2,0.7,2.1,0.7h2.2c0.9,0,1.6-0.2,2.1-0.7
					C52.9,571.2,53.2,570.6,53.2,569.7z M52,576c0,0.4-0.1,0.7-0.4,0.9c-0.3,0.2-0.7,0.3-1.3,0.3h-2.2c-0.6,0-1-0.1-1.3-0.3
					s-0.4-0.5-0.4-0.9s0.1-0.7,0.4-0.9c0.3-0.2,0.7-0.3,1.3-0.3h2.2c0.6,0,1,0.1,1.3,0.3C51.9,575.3,52,575.6,52,576z M53.2,576
					c0-0.8-0.3-1.5-0.8-2s-1.2-0.7-2.1-0.7h-2.2c-0.9,0-1.6,0.3-2.1,0.8s-0.8,1.2-0.8,2s0.3,1.5,0.8,2s1.2,0.7,2.1,0.7h2.2
					c0.9,0,1.6-0.2,2.1-0.7C52.9,577.5,53.2,576.8,53.2,576z M52,582.3c0,0.4-0.1,0.7-0.4,0.9s-0.7,0.3-1.3,0.3h-2.2
					c-0.6,0-1-0.1-1.3-0.3s-0.4-0.5-0.4-0.9s0.1-0.7,0.4-0.9c0.3-0.2,0.7-0.3,1.3-0.3h2.2c0.6,0,1,0.1,1.3,0.3
					C51.9,581.6,52,581.9,52,582.3z M53.2,582.3c0-0.8-0.3-1.5-0.8-2s-1.2-0.7-2.1-0.7h-2.2c-0.9,0-1.6,0.3-2.1,0.8s-0.8,1.2-0.8,2
					s0.3,1.5,0.8,2s1.2,0.7,2.1,0.7h2.2c0.9,0,1.6-0.2,2.1-0.7C52.9,583.8,53.2,583.1,53.2,582.3z"/>
			</g>
			<g>
				<g>
					<g>
						<defs>
							<path id="SVGID_00000002377168496617193250000003231164491332584077_" d="M52,569.7c0,0.4-0.1,0.7-0.4,0.9
								c-0.3,0.2-0.7,0.3-1.3,0.3h-2.2c-0.6,0-1-0.1-1.3-0.3s-0.4-0.5-0.4-0.9s0.1-0.7,0.4-0.9c0.3-0.2,0.7-0.3,1.3-0.3h2.2
								c0.6,0,1,0.1,1.3,0.3C51.9,569,52,569.3,52,569.7z M53.2,569.7c0-0.8-0.3-1.5-0.8-2s-1.2-0.7-2.1-0.7h-2.2
								c-0.9,0-1.6,0.3-2.1,0.8s-0.8,1.2-0.8,2s0.3,1.5,0.8,2s1.2,0.7,2.1,0.7h2.2c0.9,0,1.6-0.2,2.1-0.7
								C52.9,571.2,53.2,570.6,53.2,569.7z M52,576c0,0.4-0.1,0.7-0.4,0.9c-0.3,0.2-0.7,0.3-1.3,0.3h-2.2c-0.6,0-1-0.1-1.3-0.3
								s-0.4-0.5-0.4-0.9s0.1-0.7,0.4-0.9c0.3-0.2,0.7-0.3,1.3-0.3h2.2c0.6,0,1,0.1,1.3,0.3C51.9,575.3,52,575.6,52,576z M53.2,576
								c0-0.8-0.3-1.5-0.8-2s-1.2-0.7-2.1-0.7h-2.2c-0.9,0-1.6,0.3-2.1,0.8s-0.8,1.2-0.8,2s0.3,1.5,0.8,2s1.2,0.7,2.1,0.7h2.2
								c0.9,0,1.6-0.2,2.1-0.7C52.9,577.5,53.2,576.8,53.2,576z M52,582.3c0,0.4-0.1,0.7-0.4,0.9s-0.7,0.3-1.3,0.3h-2.2
								c-0.6,0-1-0.1-1.3-0.3s-0.4-0.5-0.4-0.9s0.1-0.7,0.4-0.9c0.3-0.2,0.7-0.3,1.3-0.3h2.2c0.6,0,1,0.1,1.3,0.3
								C51.9,581.6,52,581.9,52,582.3z M53.2,582.3c0-0.8-0.3-1.5-0.8-2s-1.2-0.7-2.1-0.7h-2.2c-0.9,0-1.6,0.3-2.1,0.8
								s-0.8,1.2-0.8,2s0.3,1.5,0.8,2s1.2,0.7,2.1,0.7h2.2c0.9,0,1.6-0.2,2.1-0.7C52.9,583.8,53.2,583.1,53.2,582.3z"/>
						</defs>
						<clipPath id="SVGID_00000048461907614524049900000006819584631503609498_">
							<use xlink:href="#SVGID_00000002377168496617193250000003231164491332584077_"  style="overflow:visible;"/>
						</clipPath>
						<g style="clip-path:url(#SVGID_00000048461907614524049900000006819584631503609498_);">
							<g>
								<g>
									
										<rect id="SVGID_00000119098392402192717030000000952758828890190229_" x="40.2" y="-17" class="st6" width="28" height="603"/>
								</g>
								<g>
									<g>
										<g>
											<defs>
												<rect id="SVGID_00000004517455901416983490000015178501760389441195_" x="40.2" y="-17" width="28" height="603"/>
											</defs>
											<clipPath id="SVGID_00000170273950977659184610000017820705369078259632_">
												<use xlink:href="#SVGID_00000004517455901416983490000015178501760389441195_"  style="overflow:visible;"/>
											</clipPath>
											
												<rect x="44.2" y="566" style="clip-path:url(#SVGID_00000170273950977659184610000017820705369078259632_);fill:#FFFFFF;" width="10" height="20"/>
										</g>
									</g>
								</g>
							</g>
						</g>
					</g>
				</g>
			</g>
		</g>
	</g>
</g>
<g>
	<circle class="st6" cx="48.6" cy="508" r="1.9"/>
	<g>
		<circle class="st6" cx="42.6" cy="516" r="1.9"/>
		<path class="st6" d="M53.6,510.1c1,0,1.9,0.9,1.9,1.9s-0.9,1.9-1.9,1.9s-1.9-0.9-1.9-1.9S52.6,510.1,53.6,510.1z"/>
		<circle class="st6" cx="57.7" cy="504" r="1.9"/>
		<circle class="st6" cx="65.7" cy="516" r="1.9"/>
	</g>
</g>
<path class="st6" d="M65.5,421.5c-0.2,0-0.4,0-0.6,0.1l-6-9c0.3-0.3,0.5-0.8,0.5-1.2c0-1.1-0.9-1.9-1.9-1.9c-1.1,0-1.9,0.9-1.9,1.9
	c0,0.5,0.2,1,0.6,1.4l-2.5,4.7c-0.1,0-0.2,0-0.2,0c-0.5,0-0.9,0.2-1.3,0.5l-1.9-1.8c0.1-0.2,0.1-0.4,0.1-0.7c0-1.1-0.9-1.9-1.9-1.9
	l0,0l0,0c-1.1,0-1.9,0.9-1.9,1.9c0,0.5,0.2,0.9,0.5,1.2c-1.4,1.8-2.8,3.7-3.8,5c-0.2-0.1-0.5-0.1-0.7-0.1c-1.1,0-1.9,0.9-1.9,1.9
	c0,1.1,0.9,1.9,1.9,1.9s1.9-0.9,1.9-1.9c0-0.4-0.2-0.8-0.4-1.2c0.8-1.1,2.1-2.7,3.8-5c0.2,0.1,0.4,0.1,0.6,0.1l0,0l0,0
	c0.4,0,0.9-0.2,1.2-0.4l2,1.9c0,0.2-0.1,0.3-0.1,0.5c0,1.1,0.9,1.9,1.9,1.9c1.1,0,1.9-0.9,1.9-1.9c0-0.6-0.3-1.1-0.7-1.5l2.5-4.6
	c0.1,0,0.3,0.1,0.4,0.1c0.2,0,0.4,0,0.6-0.1l6,9c-0.3,0.3-0.4,0.7-0.4,1.2c0,1.1,0.9,1.9,1.9,1.9c1.1,0,1.9-0.9,1.9-1.9
	C67.4,422.4,66.5,421.5,65.5,421.5z"/>
<g>
	<g>
		<g>
			<g>
				<rect id="SVGID_00000034060934955574509630000012615631662860640173_" x="62.2" y="529.8" class="st6" width="5" height="24"/>
			</g>
		</g>
	</g>
	<g>
		<g>
			<g>
				<rect id="SVGID_00000065765233638514971780000006214231404155641237_" x="55.2" y="535.8" class="st6" width="5" height="18"/>
			</g>
		</g>
	</g>
	<g>
		<g>
			<g>
				<rect id="SVGID_00000119798329864432685330000002974780186805168564_" x="48.2" y="541.8" class="st6" width="5" height="12"/>
			</g>
		</g>
	</g>
	<g>
		<g>
			<g>
				<rect id="SVGID_00000121259675859380881310000005250212265939322538_" x="41.2" y="547.8" class="st6" width="5" height="6"/>
			</g>
		</g>
	</g>
</g>
<polyline class="st9" points="42.5,461.5 42.5,438.8 47.6,438.8 47.6,446.8 52.6,446.8 52.6,456.8 57.5,456.8 57.5,450 61.7,450 
	61.7,437.1 65.8,437.1 65.8,461.5 "/>
<g id="Group-29-Copy-2_00000033346493229407450630000002345953983485405572_" transform="translate(1.500000, 65.000000)">
	<g id="Group-28_00000061461387736915282660000012914666143519260306_" transform="translate(8.500000, 0.000000)">
		<path id="Line-6_00000060718490600190049710000018321941237389256886_" class="st21" d="M44.1,3.9h-3.3"/>
		<path id="Line-6-Copy_00000023991576161152159510000003988174338723965868_" class="st21" d="M47.4,17.1h-3.3"/>
		<path id="Line-5_00000031208887515968808370000016642475936622917516_" class="st21" d="M44.1,0v20.9"/>
	</g>
	<g id="Group-28-Copy_00000170982659575095868310000001134781435518370698_" transform="translate(0.500000, 4.000000)">
		<path id="Line-6_00000142872310303984482140000015529391436512501183_" class="st21" d="M44.1,3.7h-3.3"/>
		<path id="Line-6-Copy_00000051342698913954129990000010872926681200801442_" class="st21" d="M47.7,17.1h-3.6"/>
		<path class="st40" d="M44.1,0v19.1V0z"/>
	</g>
	<g id="Group-28-Copy-2_00000177469076389142791040000017420777322164017072_" transform="translate(16.500000, 4.000000)">
		<path id="Line-6_00000168077081621517712360000004214197409743601068_" class="st21" d="M44.1,3.7h-3.3"/>
		<path id="Line-6-Copy_00000079473633676661942960000009492281885706225587_" class="st21" d="M47.6,17.1h-3.5"/>
		<path class="st40" d="M44.1,0v19.1V0z"/>
	</g>
</g>
<g id="Group-29-Copy-2_00000155142840080584004990000016352626024809556377_" transform="translate(1.500000, 65.000000)">
	<g id="Group-28_00000057864683913437147170000002052931598471342466_" transform="translate(8.500000, 0.000000)">
		<path id="Line-6_00000152227294975775437290000004209586428681825691_" class="st21" d="M42.4,406.7"/>
		<path id="Line-6-Copy_00000121992180048039935640000016786032039467232958_" class="st21" d="M45.7,407.9h-3.3"/>
		<path id="Line-5_00000045598620010948788690000005081190693140511133_" class="st21" d="M42.4,402.8v20.9"/>
	</g>
	<g id="Group-28-Copy_00000152251471731632956630000002513825638107747235_" transform="translate(0.500000, 4.000000)">
		<path id="Line-6_00000183217930354538904660000008802200397828110989_" class="st21" d="M42.4,406.5"/>
		<path id="Line-6-Copy_00000161598578575422788180000000098271920577097097_" class="st21" d="M46,419.9h-3.6"/>
		<line class="st40" x1="42.4" y1="421.9" x2="42.4" y2="402.8"/>
	</g>
	<g id="Group-28-Copy-2_00000026144320220270405870000000547215825906570149_" transform="translate(16.500000, 4.000000)">
		<path id="Line-6_00000117641987609170200080000011558340522111008441_" class="st21" d="M42.4,406.5"/>
		<path id="Line-6-Copy_00000101075950192483790670000000247957676348121507_" class="st21" d="M45.9,419.9h-3.5"/>
		<path class="st40" d="M42.4,402.8v19.1V402.8z"/>
	</g>
</g>
<g>
	<path id="Path-Copy_00000111887472596826914100000010560373704199118484_" class="st3" d="M25.7,642.3l-8.3-14l0,0l-5.8,8.4
		c-1.9-2.5-2.9-3.8-2.9-3.8c-2.7,4-4.8,6.9-6.1,8.9c-0.1,0.1-0.2,0.3-0.4,0.5"/>
	<circle cx="1.7" cy="643" r="1.9"/>
	<circle cx="26.2" cy="643" r="1.9"/>
	<ellipse transform="matrix(4.830890e-03 -1 1 4.830890e-03 -624.2313 637.9457)" cx="8.4" cy="632.6" rx="1.9" ry="1.9"/>
	<circle cx="11.8" cy="637.2" r="1.9"/>
	<circle cx="17.7" cy="628.2" r="1.9"/>
</g>
<g>
	<rect x="20.6" y="695" transform="matrix(0.8355 -0.5495 0.5495 0.8355 -379.1404 126.0751)" width="0.8" height="2.5"/>
	<rect x="22.8" y="698.4" transform="matrix(0.8358 -0.5491 0.5491 0.8358 -380.3775 127.646)" width="0.8" height="2.5"/>
	<path d="M1,706.3C1,706.3,1,706.4,1,706.3l-0.6,0.6l0.7,0.7l1-1.4l-0.7-0.6L1,706.3z"/>
	<rect x="14.6" y="695.3" transform="matrix(0.6115 -0.7912 0.7912 0.6115 -544.2822 282.7919)" width="2.5" height="0.8"/>
	<rect x="25" y="701.8" transform="matrix(0.8358 -0.5491 0.5491 0.8358 -381.8595 129.4341)" width="0.8" height="2.5"/>
	<rect x="27.3" y="705.1" transform="matrix(0.8355 -0.5495 0.5495 0.8355 -383.5694 131.4156)" width="0.8" height="2.5"/>
	<path d="M10.9,699l-0.7,0.6c0.1,0.1,0.2,0.3,0.3,0.4c0.2-0.2,0.5-0.3,0.8-0.4L10.9,699z"/>
	<polygon points="7,699.9 6.4,699.4 4.8,701.4 5.5,701.9 	"/>
	<path d="M14.5,698.1l-0.7-0.5l-1.4,1.9c0.3,0.1,0.6,0.2,0.8,0.3L14.5,698.1z"/>
	<polygon points="4.6,703.1 3.9,702.6 2.4,704.5 3.1,705.1 	"/>
	<path d="M13.9,700.5c0.2,0.3,0.3,0.7,0.3,1c0,1.2-1,2.1-2.1,2.1s-2.2-1-2.2-2.1c0-0.3,0.1-0.5,0.1-0.8c-0.6-0.7-1-1.2-1.3-1.5
		l-6.1,8.1h24.1l-8.3-12.6L13.9,700.5z"/>
	<path d="M8.4,698.7c0.9,0,1.6-0.7,1.6-1.7c0-0.9-0.7-1.6-1.6-1.6s-1.6,0.7-1.6,1.6C6.7,697.9,7.5,698.7,8.4,698.7z"/>
	<path class="st5" d="M8.4,699.2c1.2,0,2.1-1,2.1-2.2s-1-2.1-2.1-2.1s-2.1,1-2.1,2.1S7.2,699.2,8.4,699.2z M8.4,695.4
		c0.9,0,1.6,0.7,1.6,1.6c0,0.9-0.7,1.7-1.6,1.7S6.8,698,6.8,697C6.7,696.1,7.5,695.4,8.4,695.4z"/>
	<path d="M10.4,701.6c0,0.9,0.7,1.6,1.7,1.6c0.9,0,1.6-0.7,1.6-1.6c0-0.9-0.7-1.7-1.6-1.7C11.1,699.9,10.4,700.7,10.4,701.6z"/>
	<path class="st5" d="M12,703.7c1.2,0,2.1-1,2.1-2.1c0-0.4-0.1-0.7-0.3-1s-0.4-0.6-0.7-0.8c-0.2-0.2-0.5-0.3-0.8-0.3
		c-0.1,0-0.3,0-0.4,0c-0.2,0-0.4,0-0.6,0.1c-0.3,0.1-0.6,0.2-0.8,0.4c-0.3,0.2-0.5,0.5-0.6,0.8c-0.1,0.2-0.1,0.5-0.1,0.8
		C9.9,702.8,10.8,703.7,12,703.7z M12,699.9c0.9,0,1.6,0.7,1.6,1.7c0,0.9-0.7,1.6-1.6,1.6c-0.9,0-1.7-0.7-1.7-1.6
		C10.4,700.7,11.1,699.9,12,699.9z"/>
	<path d="M18.5,694.2c0.9,0,1.7-0.7,1.7-1.6c0-0.9-0.7-1.7-1.7-1.7c-0.9,0-1.6,0.7-1.6,1.7C16.8,693.5,17.5,694.2,18.5,694.2z"/>
	<path class="st5" d="M18.5,694.7c1.2,0,2.2-1,2.2-2.1s-1-2.2-2.2-2.2s-2.1,1-2.1,2.2S17.3,694.7,18.5,694.7z M18.5,690.9
		c0.9,0,1.7,0.7,1.7,1.7c0,0.9-0.7,1.6-1.7,1.6c-0.9,0-1.6-0.7-1.6-1.6C16.8,691.7,17.5,690.9,18.5,690.9z"/>
</g>
<g>
	
		<rect x="60.3" y="695" transform="matrix(0.8355 -0.5495 0.5495 0.8355 -372.5999 147.8983)" class="st6" width="0.8" height="2.5"/>
	
		<rect x="62.5" y="698.4" transform="matrix(0.8358 -0.5491 0.5491 0.8358 -373.8482 149.453)" class="st6" width="0.8" height="2.5"/>
	<path class="st6" d="M40.7,706.3C40.7,706.3,40.6,706.4,40.7,706.3l-0.6,0.6l0.7,0.7l1-1.4l-0.7-0.6L40.7,706.3z"/>
	
		<rect x="54.2" y="695.3" transform="matrix(0.6115 -0.7912 0.7912 0.6115 -528.924 314.1182)" class="st6" width="2.5" height="0.8"/>
	
		<rect x="64.7" y="701.7" transform="matrix(0.8358 -0.5491 0.5491 0.8358 -375.2933 151.1973)" class="st6" width="0.8" height="2.5"/>
	
		<rect x="66.9" y="705.1" transform="matrix(0.8355 -0.5495 0.5495 0.8355 -377.0726 153.2019)" class="st6" width="0.8" height="2.5"/>
	<path class="st6" d="M50.6,699l-0.7,0.6c0.1,0.1,0.2,0.3,0.3,0.4c0.2-0.2,0.5-0.3,0.8-0.4L50.6,699z"/>
	<polygon class="st6" points="46.7,699.9 46,699.4 44.5,701.4 45.2,701.9 	"/>
	<path class="st6" d="M54.1,698.1l-0.7-0.5l-1.4,1.9c0.3,0.1,0.6,0.2,0.8,0.3L54.1,698.1z"/>
	<polygon class="st6" points="44.2,703.1 43.6,702.6 42,704.5 42.7,705.1 	"/>
	<path class="st6" d="M53.5,700.5c0.2,0.3,0.3,0.7,0.3,1c0,1.2-1,2.1-2.1,2.1s-2.2-1-2.2-2.1c0-0.3,0.1-0.5,0.1-0.8
		c-0.6-0.7-1-1.2-1.3-1.5l-6.1,8.1h24.1L58,694.8L53.5,700.5z"/>
	<path class="st6" d="M48,698.7c0.9,0,1.6-0.7,1.6-1.7c0-0.9-0.7-1.6-1.6-1.6s-1.6,0.7-1.6,1.6C46.4,697.9,47.1,698.7,48,698.7z"/>
	<path class="st5" d="M48,699.2c1.2,0,2.1-1,2.1-2.2s-1-2.1-2.1-2.1s-2.1,1-2.1,2.1S46.8,699.2,48,699.2z M48,695.4
		c0.9,0,1.6,0.7,1.6,1.6c0,0.9-0.7,1.7-1.6,1.7s-1.6-0.7-1.6-1.7C46.4,696.1,47.1,695.4,48,695.4z"/>
	<path class="st6" d="M50,701.6c0,0.9,0.7,1.6,1.7,1.6c0.9,0,1.6-0.7,1.6-1.6c0-0.9-0.7-1.7-1.6-1.7C50.7,699.9,50,700.7,50,701.6z"
		/>
	<path class="st5" d="M51.6,703.7c1.2,0,2.1-1,2.1-2.1c0-0.4-0.1-0.7-0.3-1s-0.4-0.6-0.7-0.8c-0.2-0.2-0.5-0.3-0.8-0.3
		c-0.1,0-0.3,0-0.4,0c-0.2,0-0.4,0-0.6,0.1c-0.3,0.1-0.6,0.2-0.8,0.4c-0.3,0.2-0.5,0.5-0.6,0.8c-0.1,0.2-0.1,0.5-0.1,0.8
		C49.5,702.8,50.5,703.7,51.6,703.7z M51.6,699.9c0.9,0,1.6,0.7,1.6,1.7c0,0.9-0.7,1.6-1.6,1.6c-0.9,0-1.7-0.7-1.7-1.6
		C50,700.7,50.7,699.9,51.6,699.9z"/>
	<path class="st6" d="M58.1,694.2c0.9,0,1.7-0.7,1.7-1.6c0-0.9-0.7-1.7-1.7-1.7c-0.9,0-1.6,0.7-1.6,1.7
		C56.4,693.5,57.2,694.2,58.1,694.2z"/>
	<path class="st5" d="M58.1,694.7c1.2,0,2.2-1,2.2-2.1s-1-2.2-2.2-2.2s-2.1,1-2.1,2.2S56.9,694.7,58.1,694.7z M58.1,690.9
		c0.9,0,1.7,0.7,1.7,1.7c0,0.9-0.7,1.6-1.7,1.6c-0.9,0-1.6-0.7-1.6-1.6C56.4,691.7,57.2,690.9,58.1,690.9z"/>
</g>
<g>
	<path id="Line-7-Copy_00000138568125909426789640000012773532619896555674_" class="st7" d="M1.4,764.5h25.9"/>
	<g>
		<path d="M20,754.6c-0.4,0.3-0.8,0.4-1.3,0.4c-0.7,0-1.3-0.3-1.7-0.8l-5.5,6.5h12.9L20,754.6z"/>
		<path d="M11.4,760.7c-0.9-1.1-1.6-1.9-2.1-2.5c-0.4,0.3-0.9,0.5-1.4,0.5c-0.4,0-0.9-0.1-1.2-0.4c-0.7,1-1.3,1.8-1.8,2.4H11.4z"/>
		<path d="M26.3,767.4H2.6c-0.5,0.6-1.2,1.7-2.3,3.1h28L26.3,767.4z"/>
		<path d="M6.3,756.5c0,0.9,0.7,1.7,1.7,1.7c0.9,0,1.6-0.7,1.6-1.7c0-0.9-0.7-1.6-1.6-1.6C7,754.9,6.3,755.6,6.3,756.5z"/>
		<path class="st5" d="M9.3,758.2c0.5-0.4,0.8-1,0.8-1.6c0-1.2-1-2.1-2.1-2.1s-2.2,1-2.2,2.1c0,0.7,0.4,1.4,0.9,1.8
			c0.3,0.2,0.8,0.4,1.2,0.4C8.5,758.7,9,758.5,9.3,758.2z M9.6,756.5c0,0.9-0.7,1.7-1.6,1.7s-1.7-0.7-1.7-1.7c0-0.9,0.7-1.6,1.7-1.6
			C8.9,754.9,9.6,755.6,9.6,756.5z"/>
		<path d="M17,752.9c0,0.9,0.7,1.7,1.7,1.7c0.9,0,1.6-0.7,1.6-1.7s-0.7-1.7-1.6-1.7C17.8,751.3,17,752,17,752.9z"/>
		<path class="st5" d="M18.7,755.1c0.5,0,0.9-0.2,1.3-0.4c0.5-0.4,0.9-1,0.9-1.7c0-1.2-1-2.2-2.1-2.2s-2.2,1-2.2,2.2
			c0,0.5,0.2,0.9,0.5,1.3C17.4,754.7,18,755.1,18.7,755.1z M20.3,752.9c0,0.9-0.7,1.7-1.6,1.7s-1.7-0.7-1.7-1.7s0.7-1.7,1.7-1.7
			C19.6,751.3,20.3,752,20.3,752.9z"/>
	</g>
</g>
<g>
	<path id="Line-7-Copy_00000077283904411707837460000009280313658903189171_" class="st29" d="M41.3,764.5h25.9"/>
	<path class="st6" d="M59.8,754.6c-0.4,0.3-0.8,0.4-1.3,0.4c-0.7,0-1.3-0.3-1.7-0.8l-5.5,6.5h12.9L59.8,754.6z"/>
	<path class="st6" d="M51.3,760.7c-0.9-1.1-1.6-1.9-2.1-2.5c-0.4,0.3-0.9,0.5-1.4,0.5c-0.4,0-0.9-0.1-1.2-0.4
		c-0.7,1-1.3,1.8-1.8,2.4H51.3z"/>
	<path class="st6" d="M66.2,767.4H42.5c-0.5,0.6-1.2,1.7-2.3,3.1h28L66.2,767.4z"/>
	<path class="st6" d="M46.1,756.5c0,0.9,0.7,1.7,1.7,1.7c0.9,0,1.6-0.7,1.6-1.7c0-0.9-0.7-1.6-1.6-1.6S46.1,755.6,46.1,756.5z"/>
	<path class="st5" d="M49.2,758.2c0.5-0.4,0.8-1,0.8-1.6c0-1.2-1-2.1-2.1-2.1s-2.2,1-2.2,2.1c0,0.7,0.4,1.4,0.9,1.8
		c0.3,0.2,0.8,0.4,1.2,0.4C48.3,758.7,48.8,758.5,49.2,758.2z M49.4,756.5c0,0.9-0.7,1.7-1.6,1.7c-0.9,0-1.7-0.7-1.7-1.7
		c0-0.9,0.7-1.6,1.7-1.6C48.7,754.9,49.4,755.6,49.4,756.5z"/>
	<path class="st6" d="M56.9,752.9c0,0.9,0.7,1.7,1.7,1.7c0.9,0,1.6-0.7,1.6-1.7s-0.7-1.7-1.6-1.7C57.6,751.3,56.9,752,56.9,752.9z"
		/>
	<path class="st5" d="M58.5,755.1c0.5,0,0.9-0.2,1.3-0.4c0.5-0.4,0.9-1,0.9-1.7c0-1.2-1-2.2-2.1-2.2s-2.2,1-2.2,2.2
		c0,0.5,0.2,0.9,0.5,1.3C57.2,754.7,57.8,755.1,58.5,755.1z M60.2,752.9c0,0.9-0.7,1.7-1.6,1.7c-0.9,0-1.7-0.7-1.7-1.7
		s0.7-1.7,1.7-1.7C59.4,751.3,60.2,752,60.2,752.9z"/>
</g>
<g>
	<path id="Line-7-Copy_00000003087724450402594570000016164433569753956255_" class="st7" d="M1.7,795.4h25.9"/>
	<g>
		<path d="M25.5,791.5l-2.6-3.4c-0.4,0.4-0.9,0.6-1.5,0.6c-0.7,0-1.3-0.3-1.7-0.9l-2.9,3.6h8.7V791.5z"/>
		<path d="M4.8,798.1l2.6,3.4c0.4-0.5,1-0.8,1.6-0.8c0.7,0,1.3,0.3,1.7,0.8l2.7-3.4H4.8z"/>
		<path d="M10.7,802.9c0-0.9-0.7-1.7-1.6-1.7s-1.6,0.7-1.6,1.7c0,0.9,0.7,1.6,1.6,1.6S10.7,803.8,10.7,802.9z"/>
		<path class="st5" d="M9,800.7c-0.7,0-1.2,0.3-1.6,0.8c-0.3,0.4-0.5,0.9-0.5,1.4c0,1.2,1,2.1,2.1,2.1s2.1-1,2.1-2.1
			c0-0.5-0.2-1-0.5-1.3C10.3,801.1,9.7,800.7,9,800.7z M7.4,802.9c0-0.9,0.7-1.7,1.6-1.7s1.6,0.7,1.6,1.7c0,0.9-0.7,1.6-1.6,1.6
			S7.4,803.8,7.4,802.9z"/>
		<path d="M21.4,788.2c0.9,0,1.6-0.7,1.6-1.6c0-0.9-0.7-1.7-1.6-1.7s-1.6,0.7-1.6,1.7C19.8,787.4,20.5,788.2,21.4,788.2z"/>
		<path class="st5" d="M21.4,788.7c0.6,0,1.1-0.2,1.5-0.6c0.4-0.4,0.7-0.9,0.7-1.6c0-1.2-1-2.2-2.1-2.2s-2.1,1-2.1,2.2
			c0,0.5,0.2,0.9,0.4,1.3C20.1,788.3,20.7,788.7,21.4,788.7z M21.4,784.9c0.9,0,1.6,0.7,1.6,1.7c0,0.9-0.7,1.6-1.6,1.6
			s-1.6-0.7-1.6-1.6C19.8,785.6,20.5,784.9,21.4,784.9z"/>
	</g>
</g>
<g>
	<path id="Line-7-Copy_00000061450485985908550440000007630836953109222569_" class="st29" d="M41.2,795.4h25.9"/>
	<g>
		<path class="st6" d="M65.1,791.5l-2.6-3.4c-0.4,0.4-0.9,0.6-1.5,0.6c-0.7,0-1.3-0.3-1.7-0.9l-2.9,3.6h8.7V791.5z"/>
		<path class="st6" d="M44.3,798.1l2.6,3.4c0.4-0.5,1-0.8,1.6-0.8c0.7,0,1.3,0.3,1.7,0.8l2.7-3.4H44.3z"/>
		<path class="st6" d="M50.2,802.9c0-0.9-0.7-1.7-1.6-1.7s-1.6,0.7-1.6,1.7c0,0.9,0.7,1.6,1.6,1.6S50.2,803.8,50.2,802.9z"/>
		<path class="st5" d="M48.6,800.7c-0.7,0-1.2,0.3-1.6,0.8c-0.3,0.4-0.5,0.9-0.5,1.4c0,1.2,1,2.1,2.1,2.1s2.1-1,2.1-2.1
			c0-0.5-0.2-1-0.5-1.3C49.9,801.1,49.3,800.7,48.6,800.7z M46.9,802.9c0-0.9,0.7-1.7,1.6-1.7s1.6,0.7,1.6,1.7
			c0,0.9-0.7,1.6-1.6,1.6S46.9,803.8,46.9,802.9z"/>
		<path class="st6" d="M61,788.2c0.9,0,1.6-0.7,1.6-1.6c0-0.9-0.7-1.7-1.6-1.7s-1.6,0.7-1.6,1.7C59.3,787.4,60.1,788.2,61,788.2z"/>
		<path class="st5" d="M61,788.7c0.6,0,1.1-0.2,1.5-0.6c0.4-0.4,0.7-0.9,0.7-1.6c0-1.2-1-2.2-2.1-2.2s-2.1,1-2.1,2.2
			c0,0.5,0.2,0.9,0.4,1.3C59.7,788.3,60.3,788.7,61,788.7z M61,784.9c0.9,0,1.6,0.7,1.6,1.7c0,0.9-0.7,1.6-1.6,1.6s-1.6-0.7-1.6-1.6
			C59.3,785.6,60.1,784.9,61,784.9z"/>
	</g>
</g>
<g>
	<path d="M27.2,735.7l-8-12.2c-0.3,0.2-0.8,0.4-1.2,0.4c-0.5,0-1-0.2-1.3-0.5l-5.1,6.7c-0.7-0.9-1.3-1.6-1.8-2.2
		c-0.4,0.3-0.9,0.5-1.4,0.5s-0.9-0.2-1.3-0.4l-5.8,7.7H27.2z"/>
	<path d="M6.7,726.3c0,0.9,0.7,1.6,1.6,1.6s1.6-0.7,1.6-1.6c0-0.9-0.7-1.7-1.6-1.7S6.7,725.4,6.7,726.3z"/>
	<path class="st5" d="M9.7,728c0.5-0.4,0.8-1,0.8-1.6c0-1.2-1-2.2-2.1-2.2s-2.1,1-2.1,2.2c0,0.7,0.3,1.3,0.9,1.7
		c0.4,0.3,0.8,0.4,1.3,0.4C8.8,728.5,9.3,728.3,9.7,728z M10,726.3c0,0.9-0.7,1.6-1.6,1.6s-1.6-0.7-1.6-1.6c0-0.9,0.7-1.7,1.6-1.7
		S10,725.4,10,726.3z"/>
	<path d="M19.7,721.8c0-0.9-0.7-1.6-1.6-1.6s-1.6,0.7-1.6,1.6c0,0.9,0.7,1.7,1.6,1.7S19.7,722.7,19.7,721.8z"/>
	<path class="st5" d="M19.2,723.6c0.6-0.4,0.9-1,0.9-1.8c0-1.2-1-2.1-2.1-2.1s-2.1,1-2.1,2.1c0,0.7,0.3,1.3,0.8,1.7
		c0.4,0.3,0.8,0.5,1.3,0.5C18.5,724,18.9,723.8,19.2,723.6z M16.4,721.8c0-0.9,0.7-1.6,1.6-1.6s1.6,0.7,1.6,1.6
		c0,0.9-0.7,1.7-1.6,1.7S16.4,722.7,16.4,721.8z"/>
</g>
<g>
	<path class="st6" d="M67.2,735.7l-8-12.2c-0.3,0.2-0.8,0.4-1.2,0.4c-0.5,0-1-0.2-1.3-0.5l-5.1,6.7c-0.7-0.9-1.3-1.6-1.8-2.2
		c-0.4,0.3-0.9,0.5-1.4,0.5s-0.9-0.2-1.3-0.4l-5.8,7.7H67.2z"/>
	<path class="st6" d="M46.6,726.3c0,0.9,0.7,1.6,1.6,1.6s1.6-0.7,1.6-1.6c0-0.9-0.7-1.7-1.6-1.7S46.6,725.4,46.6,726.3z"/>
	<path class="st5" d="M49.7,728c0.5-0.4,0.8-1,0.8-1.6c0-1.2-1-2.2-2.1-2.2s-2.1,1-2.1,2.2c0,0.7,0.3,1.3,0.9,1.7
		c0.4,0.3,0.8,0.4,1.3,0.4C48.8,728.5,49.3,728.3,49.7,728z M49.9,726.3c0,0.9-0.7,1.6-1.6,1.6s-1.6-0.7-1.6-1.6
		c0-0.9,0.7-1.7,1.6-1.7S49.9,725.4,49.9,726.3z"/>
	<path class="st6" d="M59.6,721.8c0-0.9-0.7-1.6-1.6-1.6s-1.6,0.7-1.6,1.6c0,0.9,0.7,1.7,1.6,1.7S59.6,722.7,59.6,721.8z"/>
	<path class="st5" d="M59.2,723.6c0.6-0.4,0.9-1,0.9-1.8c0-1.2-1-2.1-2.1-2.1s-2.1,1-2.1,2.1c0,0.7,0.3,1.3,0.8,1.7
		c0.4,0.3,0.8,0.5,1.3,0.5C58.4,724,58.8,723.8,59.2,723.6z M56.3,721.8c0-0.9,0.7-1.6,1.6-1.6s1.6,0.7,1.6,1.6
		c0,0.9-0.7,1.7-1.6,1.7S56.3,722.7,56.3,721.8z"/>
</g>
<g>
	<rect x="12.1" y="950.8" width="1.5" height="5.6"/>
	<rect x="16.7" y="954.3" width="1.5" height="2.1"/>
	<rect x="25.3" y="956" width="1.5" height="3.5"/>
	<rect x="2" y="955.6" width="1.5" height="3.5"/>
	<rect x="2" y="960.6" width="1.5" height="3.5"/>
	<path d="M25.3,941v3.5h1.5V941l0,0c-0.2,0.1-0.5,0.2-0.8,0.2S25.5,941.1,25.3,941z"/>
	<rect x="25.3" y="951" width="1.5" height="3.5"/>
	<rect x="2" y="950.6" width="1.5" height="3.5"/>
	<path d="M21.2,941v2.7h1.5v-2.8c-0.2,0.1-0.5,0.2-0.8,0.2C21.6,941.2,21.4,941.1,21.2,941z"/>
	<rect x="25.3" y="946" width="1.5" height="3.5"/>
	<rect x="25.3" y="961" width="1.5" height="3.2"/>
	<rect x="7.1" y="942.9" width="1.5" height="3.5"/>
	<rect x="2" y="945.6" width="1.5" height="3.5"/>
	<rect x="21.2" y="945.2" width="1.5" height="3.5"/>
	<path d="M20.3,952.8L20.3,952.8L20.3,952.8L20.3,952.8z"/>
	<path d="M2,942.3v1.9h1.5v-1.9c-0.2,0.1-0.5,0.2-0.8,0.2C2.4,942.4,2.2,942.4,2,942.3z"/>
	<circle cx="2.7" cy="940.7" r="1.2"/>
	<path class="st5" d="M2.7,938.9c-1,0-1.8,0.8-1.8,1.8c0,0.7,0.4,1.3,1.1,1.6c0.2,0.1,0.4,0.1,0.7,0.1s0.6-0.1,0.8-0.2
		c0.6-0.3,0.9-0.9,0.9-1.5C4.4,939.7,3.7,938.9,2.7,938.9z M3.9,940.7c0,0.7-0.6,1.2-1.2,1.2s-1.2-0.6-1.2-1.2s0.6-1.2,1.2-1.2
		S3.9,940,3.9,940.7z"/>
	<circle cx="7.6" cy="940.7" r="1.2"/>
	<path class="st5" d="M6.3,941.8c0.3,0.4,0.8,0.6,1.3,0.6c1,0,1.8-0.8,1.8-1.8s-0.8-1.8-1.8-1.8c-0.8,0-1.5,0.6-1.7,1.4
		c0,0.1,0,0.2,0,0.4C5.9,941.1,6,941.5,6.3,941.8z M8.9,940.7c0,0.7-0.6,1.2-1.2,1.2s-1.2-0.6-1.2-1.2s0.6-1.2,1.2-1.2
		S8.9,940,8.9,940.7z"/>
	<circle cx="7.6" cy="948.8" r="1.2"/>
	<path class="st5" d="M9.3,948.2C9,947.5,8.4,947,7.6,947c-1,0-1.8,0.8-1.8,1.8s0.8,1.8,1.8,1.8c0.6,0,1.2-0.3,1.5-0.8
		c0.2-0.3,0.3-0.6,0.3-0.9C9.4,948.6,9.3,948.4,9.3,948.2z M7.6,950c-0.7,0-1.2-0.6-1.2-1.2s0.6-1.2,1.2-1.2s1.2,0.6,1.2,1.2
		S8.3,950,7.6,950z"/>
	<circle cx="12.7" cy="948.8" r="1.2"/>
	<path class="st5" d="M12.1,950.4c0.2,0.1,0.4,0.1,0.7,0.1s0.6-0.1,0.8-0.2c0.5-0.3,0.9-0.9,0.9-1.5c0-1-0.8-1.8-1.8-1.8
		s-1.8,0.8-1.8,1.8C11,949.5,11.5,950.1,12.1,950.4z M14,948.8c0,0.7-0.6,1.2-1.2,1.2s-1.2-0.6-1.2-1.2s0.6-1.2,1.2-1.2
		S14,948.1,14,948.8z"/>
	<circle cx="12.7" cy="958.8" r="1.2"/>
	<path class="st5" d="M14.3,958c-0.3-0.6-0.9-1-1.6-1c-1,0-1.8,0.8-1.8,1.8s0.8,1.8,1.8,1.8c0.7,0,1.3-0.4,1.6-1
		c0.1-0.2,0.2-0.5,0.2-0.8S14.4,958.2,14.3,958z M12.7,960c-0.7,0-1.2-0.6-1.2-1.2s0.6-1.2,1.2-1.2s1.2,0.6,1.2,1.2
		S13.4,960,12.7,960z"/>
	<circle cx="17.5" cy="958.8" r="1.2"/>
	<path class="st5" d="M18.5,957.3c-0.3-0.2-0.6-0.3-1-0.3c-0.2,0-0.3,0-0.5,0.1c-0.7,0.2-1.3,0.9-1.3,1.7c0,1,0.8,1.8,1.8,1.8
		s1.8-0.8,1.8-1.8C19.2,958.2,18.9,957.7,18.5,957.3z M17.5,960c-0.7,0-1.2-0.6-1.2-1.2s0.6-1.2,1.2-1.2s1.2,0.6,1.2,1.2
		S18.2,960,17.5,960z"/>
	<circle cx="17.5" cy="952" r="1.2"/>
	<path class="st5" d="M17.5,950.2c-1,0-1.8,0.8-1.8,1.8c0,0.8,0.5,1.5,1.3,1.7c0.2,0,0.3,0.1,0.5,0.1c0.4,0,0.7-0.1,1-0.3
		c0.4-0.3,0.7-0.8,0.7-1.4C19.2,951,18.5,950.2,17.5,950.2z M17.5,953.2c-0.7,0-1.2-0.6-1.2-1.2s0.6-1.2,1.2-1.2s1.2,0.6,1.2,1.2
		S18.2,953.2,17.5,953.2z"/>
	<circle cx="21.9" cy="952" r="1.2"/>
	<path class="st5" d="M22.7,950.5c-0.2-0.1-0.5-0.2-0.8-0.2c-0.2,0-0.5,0-0.7,0.1c-0.6,0.3-1.1,0.9-1.1,1.6c0,0.3,0.1,0.5,0.2,0.8
		c0,0,0,0,0,0.1c0.3,0.5,0.9,0.9,1.5,0.9c1,0,1.8-0.8,1.8-1.8C23.6,951.3,23.2,950.7,22.7,950.5z M20.6,952c0-0.7,0.6-1.2,1.2-1.2
		s1.2,0.6,1.2,1.2s-0.6,1.2-1.2,1.2S20.6,952.7,20.6,952z"/>
	<circle cx="21.9" cy="939.4" r="1.2"/>
	<path class="st5" d="M23.4,938.6c-0.3-0.6-0.9-1-1.6-1c-1,0-1.8,0.8-1.8,1.8c0,0.7,0.4,1.4,1.1,1.6c0.2,0.1,0.4,0.1,0.7,0.1
		c0.3,0,0.6-0.1,0.8-0.2c0.3-0.2,0.6-0.5,0.8-0.8c0.1-0.2,0.2-0.5,0.2-0.7C23.6,939.1,23.5,938.9,23.4,938.6z M21.9,938.2
		c0.7,0,1.2,0.6,1.2,1.2s-0.6,1.2-1.2,1.2s-1.2-0.6-1.2-1.2S21.2,938.2,21.9,938.2z"/>
	<circle cx="26" cy="939.4" r="1.2"/>
	<path class="st5" d="M27.7,939.4c0-1-0.8-1.8-1.8-1.8c-0.7,0-1.3,0.4-1.6,1c-0.1,0.2-0.2,0.5-0.2,0.8s0.1,0.5,0.2,0.7
		c0.2,0.4,0.5,0.7,0.9,0.9c0.2,0.1,0.5,0.2,0.7,0.2c0.3,0,0.5-0.1,0.8-0.2C27.3,940.7,27.7,940.1,27.7,939.4z M26,940.7
		c-0.7,0-1.2-0.6-1.2-1.2s0.6-1.2,1.2-1.2s1.2,0.6,1.2,1.2S26.7,940.7,26,940.7z"/>
</g>
<g>
	<rect x="51.9" y="950.8" class="st6" width="1.5" height="5.6"/>
	<rect x="56.6" y="954.3" class="st6" width="1.5" height="2.1"/>
	<rect x="65.1" y="956" class="st6" width="1.5" height="3.5"/>
	<rect x="41.8" y="955.6" class="st6" width="1.5" height="3.5"/>
	<rect x="41.8" y="960.6" class="st6" width="1.5" height="3.5"/>
	<path class="st6" d="M65.1,941v3.5h1.5V941l0,0c-0.2,0.1-0.5,0.2-0.8,0.2C65.6,941.2,65.3,941.1,65.1,941z"/>
	<rect x="65.1" y="951" class="st6" width="1.5" height="3.5"/>
	<rect x="41.8" y="950.6" class="st6" width="1.5" height="3.5"/>
	<path class="st6" d="M61,941v2.7h1.5v-2.8c-0.2,0.1-0.5,0.2-0.8,0.2C61.5,941.2,61.2,941.1,61,941z"/>
	<rect x="65.1" y="946" class="st6" width="1.5" height="3.5"/>
	<rect x="65.1" y="961" class="st6" width="1.5" height="3.2"/>
	<rect x="46.9" y="942.9" class="st6" width="1.5" height="3.5"/>
	<rect x="41.8" y="945.6" class="st6" width="1.5" height="3.5"/>
	<rect x="61" y="945.2" class="st6" width="1.5" height="3.5"/>
	<path class="st6" d="M60.1,952.8L60.1,952.8C60.2,952.8,60.2,952.8,60.1,952.8L60.1,952.8z"/>
	<path class="st6" d="M41.8,942.3v1.9h1.5v-1.9c-0.2,0.1-0.5,0.2-0.8,0.2C42.3,942.4,42,942.4,41.8,942.3z"/>
	<circle class="st6" cx="42.5" cy="940.7" r="1.2"/>
	<path class="st5" d="M42.5,938.9c-1,0-1.8,0.8-1.8,1.8c0,0.7,0.4,1.3,1.1,1.6c0.2,0.1,0.4,0.1,0.7,0.1s0.6-0.1,0.8-0.2
		c0.6-0.3,0.9-0.9,0.9-1.5C44.3,939.7,43.5,938.9,42.5,938.9z M43.8,940.7c0,0.7-0.6,1.2-1.2,1.2s-1.2-0.6-1.2-1.2s0.6-1.2,1.2-1.2
		S43.8,940,43.8,940.7z"/>
	<circle class="st6" cx="47.5" cy="940.7" r="1.2"/>
	<path class="st5" d="M46.1,941.8c0.3,0.4,0.8,0.6,1.3,0.6c1,0,1.8-0.8,1.8-1.8s-0.8-1.8-1.8-1.8c-0.8,0-1.5,0.6-1.7,1.4
		c0,0.1,0,0.2,0,0.4C45.7,941.1,45.9,941.5,46.1,941.8z M48.7,940.7c0,0.7-0.6,1.2-1.2,1.2s-1.2-0.6-1.2-1.2s0.6-1.2,1.2-1.2
		S48.7,940,48.7,940.7z"/>
	<circle class="st6" cx="47.5" cy="948.8" r="1.2"/>
	<path class="st5" d="M49.1,948.2c-0.2-0.7-0.9-1.2-1.6-1.2c-1,0-1.8,0.8-1.8,1.8s0.8,1.8,1.8,1.8c0.6,0,1.2-0.3,1.5-0.8
		c0.2-0.3,0.3-0.6,0.3-0.9C49.2,948.6,49.2,948.4,49.1,948.2z M47.5,950c-0.7,0-1.2-0.6-1.2-1.2s0.6-1.2,1.2-1.2s1.2,0.6,1.2,1.2
		S48.1,950,47.5,950z"/>
	<circle class="st6" cx="52.6" cy="948.8" r="1.2"/>
	<path class="st5" d="M51.9,950.4c0.2,0.1,0.4,0.1,0.7,0.1s0.6-0.1,0.8-0.2c0.5-0.3,0.9-0.9,0.9-1.5c0-1-0.8-1.8-1.8-1.8
		s-1.8,0.8-1.8,1.8C50.8,949.5,51.3,950.1,51.9,950.4z M53.8,948.8c0,0.7-0.6,1.2-1.2,1.2s-1.2-0.6-1.2-1.2s0.6-1.2,1.2-1.2
		S53.8,948.1,53.8,948.8z"/>
	<circle class="st6" cx="52.6" cy="958.8" r="1.2"/>
	<path class="st5" d="M54.2,958c-0.3-0.6-0.9-1-1.6-1c-1,0-1.8,0.8-1.8,1.8s0.8,1.8,1.8,1.8c0.7,0,1.3-0.4,1.6-1
		c0.1-0.2,0.2-0.5,0.2-0.8S54.3,958.2,54.2,958z M52.6,960c-0.7,0-1.2-0.6-1.2-1.2s0.6-1.2,1.2-1.2s1.2,0.6,1.2,1.2
		S53.3,960,52.6,960z"/>
	<circle class="st6" cx="57.3" cy="958.8" r="1.2"/>
	<path class="st5" d="M58.3,957.3c-0.3-0.2-0.6-0.3-1-0.3c-0.2,0-0.3,0-0.5,0.1c-0.7,0.2-1.3,0.9-1.3,1.7c0,1,0.8,1.8,1.8,1.8
		s1.8-0.8,1.8-1.8C59.1,958.2,58.8,957.7,58.3,957.3z M57.3,960c-0.7,0-1.2-0.6-1.2-1.2s0.6-1.2,1.2-1.2s1.2,0.6,1.2,1.2
		S58,960,57.3,960z"/>
	<circle class="st6" cx="57.3" cy="952" r="1.2"/>
	<path class="st5" d="M57.3,950.2c-1,0-1.8,0.8-1.8,1.8c0,0.8,0.5,1.5,1.3,1.7c0.2,0,0.3,0.1,0.5,0.1c0.4,0,0.7-0.1,1-0.3
		c0.4-0.3,0.7-0.8,0.7-1.4C59.1,951,58.3,950.2,57.3,950.2z M57.3,953.2c-0.7,0-1.2-0.6-1.2-1.2s0.6-1.2,1.2-1.2s1.2,0.6,1.2,1.2
		S58,953.2,57.3,953.2z"/>
	<circle class="st6" cx="61.7" cy="952" r="1.2"/>
	<path class="st5" d="M62.5,950.5c-0.2-0.1-0.5-0.2-0.8-0.2c-0.2,0-0.5,0-0.7,0.1c-0.6,0.3-1.1,0.9-1.1,1.6c0,0.3,0.1,0.5,0.2,0.8
		c0,0,0,0,0,0.1c0.3,0.5,0.9,0.9,1.5,0.9c1,0,1.8-0.8,1.8-1.8C63.5,951.3,63.1,950.7,62.5,950.5z M60.5,952c0-0.7,0.6-1.2,1.2-1.2
		s1.2,0.6,1.2,1.2s-0.6,1.2-1.2,1.2S60.5,952.7,60.5,952z"/>
	<circle class="st6" cx="61.7" cy="939.4" r="1.2"/>
	<path class="st5" d="M63.3,938.6c-0.3-0.6-0.9-1-1.6-1c-1,0-1.8,0.8-1.8,1.8c0,0.7,0.4,1.4,1.1,1.6c0.2,0.1,0.4,0.1,0.7,0.1
		s0.6-0.1,0.8-0.2c0.3-0.2,0.6-0.5,0.8-0.8c0.1-0.2,0.2-0.5,0.2-0.7C63.5,939.1,63.4,938.9,63.3,938.6z M61.7,938.2
		c0.7,0,1.2,0.6,1.2,1.2s-0.6,1.2-1.2,1.2s-1.2-0.6-1.2-1.2S61,938.2,61.7,938.2z"/>
	<circle class="st6" cx="65.8" cy="939.4" r="1.2"/>
	<path class="st5" d="M67.6,939.4c0-1-0.8-1.8-1.8-1.8c-0.7,0-1.3,0.4-1.6,1c-0.1,0.2-0.2,0.5-0.2,0.8s0.1,0.5,0.2,0.7
		c0.2,0.4,0.5,0.7,0.9,0.9c0.2,0.1,0.5,0.2,0.7,0.2c0.3,0,0.5-0.1,0.8-0.2C67.2,940.7,67.6,940.1,67.6,939.4z M65.8,940.7
		c-0.7,0-1.2-0.6-1.2-1.2s0.6-1.2,1.2-1.2s1.2,0.6,1.2,1.2S66.5,940.7,65.8,940.7z"/>
</g>
<g>
	<path d="M24.6,1003.1H24c0,1-0.8,1.7-1.7,1.7c-0.1,0-0.3,0-0.4-0.1v9.2c0.1,0,0.3-0.1,0.4-0.1c1,0,1.8,0.8,1.8,1.8
		s-0.8,1.8-1.8,1.8c-0.9,0-1.6-0.6-1.7-1.4h-0.9c-0.2,0.8-0.9,1.4-1.7,1.4c-0.1,0-0.2,0-0.2,0v3.3c0.1,0,0.2,0,0.2,0
		c1,0,1.8,0.8,1.8,1.8s-0.8,1.8-1.8,1.8c-0.8,0-1.5-0.6-1.7-1.4H15c-0.2,0.8-0.9,1.4-1.7,1.4c-1,0-1.8-0.8-1.8-1.8
		c0-0.8,0.6-1.5,1.4-1.7v-6.6c-0.7-0.2-1.2-0.7-1.3-1.4H9.7c-0.2,0.8-0.9,1.4-1.7,1.4c-1,0-1.8-0.8-1.8-1.8c0-0.9,0.6-1.6,1.5-1.7
		v-4.6c-0.7-0.1-1.2-0.6-1.4-1.3H4.7c-0.2,0.8-0.9,1.3-1.7,1.3c-0.2,0-0.3,0-0.4-0.1v21.5h23.3v-22.7
		C25.2,1004.6,24.6,1003.9,24.6,1003.1z"/>
	<ellipse transform="matrix(4.830837e-03 -1 1 4.830837e-03 -1001.2998 1002.4512)" cx="3" cy="1004.3" rx="1.2" ry="1.2"/>
	<path class="st5" d="M4.7,1004.8c0-0.1,0.1-0.3,0.1-0.4c0-1-0.8-1.8-1.8-1.8s-1.8,0.8-1.8,1.8c0,0.8,0.6,1.5,1.3,1.7
		c0.1,0,0.3,0.1,0.4,0.1C3.8,1006.1,4.5,1005.5,4.7,1004.8z M3,1003.1c0.7,0,1.2,0.6,1.2,1.2s-0.6,1.2-1.2,1.2s-1.2-0.6-1.2-1.2
		S2.3,1003.1,3,1003.1z"/>
	<circle cx="8" cy="1004.3" r="1.2"/>
	<path class="st5" d="M7.7,1006.1c0.1,0,0.2,0,0.3,0c1,0,1.8-0.8,1.8-1.8s-0.8-1.8-1.8-1.8s-1.8,0.8-1.8,1.8c0,0.2,0,0.3,0.1,0.4
		C6.5,1005.4,7,1006,7.7,1006.1z M6.7,1004.3c0-0.7,0.6-1.2,1.2-1.2s1.2,0.6,1.2,1.2s-0.6,1.2-1.2,1.2S6.7,1005,6.7,1004.3z"/>
	<circle cx="8" cy="1012.4" r="1.2"/>
	<path class="st5" d="M6.2,1012.4c0,1,0.8,1.8,1.8,1.8c0.8,0,1.6-0.6,1.7-1.4c0-0.1,0-0.2,0-0.4c0-1-0.8-1.8-1.8-1.8
		c-0.1,0-0.2,0-0.3,0C6.9,1010.8,6.2,1011.6,6.2,1012.4z M8,1013.7c-0.7,0-1.2-0.6-1.2-1.2s0.6-1.2,1.2-1.2s1.2,0.6,1.2,1.2
		S8.7,1013.7,8,1013.7z"/>
	<circle cx="13.1" cy="1012.4" r="1.2"/>
	<path class="st5" d="M12.7,1014.1c0.1,0,0.3,0,0.4,0c1,0,1.8-0.8,1.8-1.8s-0.8-1.8-1.8-1.8s-1.8,0.8-1.8,1.8c0,0.1,0,0.2,0,0.4
		C11.5,1013.5,12,1014,12.7,1014.1z M11.8,1012.4c0-0.7,0.6-1.2,1.2-1.2s1.2,0.6,1.2,1.2s-0.6,1.2-1.2,1.2S11.8,1013.1,11.8,1012.4z
		"/>
	<circle cx="13.1" cy="1022.4" r="1.2"/>
	<path class="st5" d="M11.3,1022.4c0,1,0.8,1.8,1.8,1.8c0.8,0,1.5-0.6,1.7-1.4c0-0.1,0-0.2,0-0.4c0-1-0.8-1.8-1.8-1.8
		c-0.1,0-0.3,0-0.4,0C11.9,1020.9,11.3,1021.6,11.3,1022.4z M13.1,1023.7c-0.7,0-1.2-0.6-1.2-1.2s0.6-1.2,1.2-1.2s1.2,0.6,1.2,1.2
		S13.8,1023.7,13.1,1023.7z"/>
	<circle cx="17.8" cy="1022.4" r="1.2"/>
	<path class="st5" d="M17.8,1024.2c1,0,1.8-0.8,1.8-1.8s-0.8-1.8-1.8-1.8c-0.1,0-0.2,0-0.2,0c-0.9,0.1-1.5,0.8-1.5,1.7
		c0,0.1,0,0.2,0,0.4C16.3,1023.6,17,1024.2,17.8,1024.2z M16.6,1022.4c0-0.7,0.6-1.2,1.2-1.2s1.2,0.6,1.2,1.2s-0.6,1.2-1.2,1.2
		S16.6,1023.1,16.6,1022.4z"/>
	<circle cx="17.8" cy="1015.7" r="1.2"/>
	<path class="st5" d="M19.6,1016c0-0.1,0-0.2,0-0.3c0-1-0.8-1.8-1.8-1.8s-1.8,0.8-1.8,1.8c0,0.9,0.7,1.6,1.5,1.7c0.1,0,0.2,0,0.2,0
		C18.7,1017.4,19.4,1016.8,19.6,1016z M17.8,1014.4c0.7,0,1.2,0.6,1.2,1.2s-0.6,1.2-1.2,1.2s-1.2-0.6-1.2-1.2
		S17.1,1014.4,17.8,1014.4z"/>
	<circle cx="22.2" cy="1015.7" r="1.2"/>
	<path class="st5" d="M22.2,1017.4c1,0,1.8-0.8,1.8-1.8s-0.8-1.8-1.8-1.8c-0.1,0-0.3,0-0.4,0.1c-0.8,0.2-1.3,0.9-1.3,1.7
		c0,0.1,0,0.2,0,0.3C20.7,1016.8,21.4,1017.4,22.2,1017.4z M21,1015.7c0-0.7,0.6-1.2,1.2-1.2s1.2,0.6,1.2,1.2s-0.6,1.2-1.2,1.2
		S21,1016.3,21,1015.7z"/>
	<circle cx="22.2" cy="1003.1" r="1.2"/>
	<path class="st5" d="M24,1003.1L24,1003.1c0-1-0.8-1.8-1.7-1.8s-1.8,0.8-1.8,1.8c0,0.8,0.6,1.5,1.3,1.7c0.1,0,0.3,0.1,0.4,0.1
		C23.2,1004.8,24,1004,24,1003.1z M23.5,1003.1c0,0.7-0.6,1.2-1.2,1.2s-1.2-0.6-1.2-1.2s0.6-1.2,1.2-1.2S23.5,1002.4,23.5,1003.1z"
		/>
	<circle cx="26.3" cy="1003.1" r="1.2"/>
	<path class="st5" d="M26.3,1001.3c-1,0-1.8,0.8-1.8,1.8l0,0c0,0.8,0.6,1.5,1.3,1.7c0.1,0,0.3,0.1,0.4,0.1c1,0,1.8-0.8,1.8-1.8
		S27.3,1001.3,26.3,1001.3z M25.1,1003.1c0-0.7,0.6-1.2,1.2-1.2s1.2,0.6,1.2,1.2s-0.6,1.2-1.2,1.2S25.1,1003.8,25.1,1003.1z"/>
</g>
<g>
	<path class="st6" d="M64.1,1003.1h-0.6c0,1-0.8,1.7-1.7,1.7c-0.1,0-0.3,0-0.4-0.1v9.2c0.1,0,0.3-0.1,0.4-0.1c1,0,1.8,0.8,1.8,1.8
		s-0.8,1.8-1.8,1.8c-0.9,0-1.6-0.6-1.7-1.4H59c-0.2,0.8-0.9,1.4-1.7,1.4c-0.1,0-0.2,0-0.2,0v3.3c0.1,0,0.2,0,0.2,0
		c1,0,1.8,0.8,1.8,1.8s-0.8,1.8-1.8,1.8c-0.8,0-1.5-0.6-1.7-1.4h-1.3c-0.2,0.8-0.9,1.4-1.7,1.4c-1,0-1.8-0.8-1.8-1.8
		c0-0.8,0.6-1.5,1.4-1.7v-6.6c-0.7-0.2-1.2-0.7-1.3-1.4h-1.7c-0.2,0.8-0.9,1.4-1.7,1.4c-1,0-1.8-0.8-1.8-1.8c0-0.9,0.6-1.6,1.5-1.7
		v-4.6c-0.7-0.1-1.2-0.6-1.4-1.3h-1.6c-0.2,0.8-0.9,1.3-1.7,1.3c-0.2,0-0.3,0-0.4-0.1v21.5h23.3v-22.7
		C64.6,1004.6,64.1,1003.9,64.1,1003.1z"/>
	<circle class="st6" cx="42.5" cy="1004.3" r="1.2"/>
	<path class="st5" d="M44.2,1004.8c0-0.1,0.1-0.3,0.1-0.4c0-1-0.8-1.8-1.8-1.8s-1.8,0.8-1.8,1.8c0,0.8,0.6,1.5,1.3,1.7
		c0.1,0,0.3,0.1,0.4,0.1C43.3,1006.1,44,1005.5,44.2,1004.8z M42.5,1003.1c0.7,0,1.2,0.6,1.2,1.2s-0.6,1.2-1.2,1.2s-1.2-0.6-1.2-1.2
		S41.8,1003.1,42.5,1003.1z"/>
	<circle class="st6" cx="47.5" cy="1004.3" r="1.2"/>
	<path class="st5" d="M47.2,1006.1c0.1,0,0.2,0,0.3,0c1,0,1.8-0.8,1.8-1.8s-0.8-1.8-1.8-1.8s-1.8,0.8-1.8,1.8c0,0.2,0,0.3,0.1,0.4
		C45.9,1005.4,46.5,1006,47.2,1006.1z M46.2,1004.3c0-0.7,0.6-1.2,1.2-1.2s1.2,0.6,1.2,1.2s-0.6,1.2-1.2,1.2S46.2,1005,46.2,1004.3z
		"/>
	<circle class="st6" cx="47.5" cy="1012.4" r="1.2"/>
	<path class="st5" d="M45.7,1012.4c0,1,0.8,1.8,1.8,1.8c0.8,0,1.6-0.6,1.7-1.4c0-0.1,0-0.2,0-0.4c0-1-0.8-1.8-1.8-1.8
		c-0.1,0-0.2,0-0.3,0C46.4,1010.8,45.7,1011.6,45.7,1012.4z M47.5,1013.7c-0.7,0-1.2-0.6-1.2-1.2s0.6-1.2,1.2-1.2s1.2,0.6,1.2,1.2
		S48.1,1013.7,47.5,1013.7z"/>
	<circle class="st6" cx="52.6" cy="1012.4" r="1.2"/>
	<path class="st5" d="M52.2,1014.1c0.1,0,0.3,0,0.4,0c1,0,1.8-0.8,1.8-1.8s-0.8-1.8-1.8-1.8s-1.8,0.8-1.8,1.8c0,0.1,0,0.2,0,0.4
		C51,1013.5,51.5,1014,52.2,1014.1z M51.3,1012.4c0-0.7,0.6-1.2,1.2-1.2s1.2,0.6,1.2,1.2s-0.6,1.2-1.2,1.2S51.3,1013.1,51.3,1012.4z
		"/>
	<circle class="st6" cx="52.6" cy="1022.4" r="1.2"/>
	<path class="st5" d="M50.8,1022.4c0,1,0.8,1.8,1.8,1.8c0.8,0,1.5-0.6,1.7-1.4c0-0.1,0-0.2,0-0.4c0-1-0.8-1.8-1.8-1.8
		c-0.1,0-0.3,0-0.4,0C51.4,1020.9,50.8,1021.6,50.8,1022.4z M52.6,1023.7c-0.7,0-1.2-0.6-1.2-1.2s0.6-1.2,1.2-1.2s1.2,0.6,1.2,1.2
		S53.3,1023.7,52.6,1023.7z"/>
	<circle class="st6" cx="57.3" cy="1022.4" r="1.2"/>
	<path class="st5" d="M57.3,1024.2c1,0,1.8-0.8,1.8-1.8s-0.8-1.8-1.8-1.8c-0.1,0-0.2,0-0.2,0c-0.9,0.1-1.5,0.8-1.5,1.7
		c0,0.1,0,0.2,0,0.4C55.8,1023.6,56.5,1024.2,57.3,1024.2z M56.1,1022.4c0-0.7,0.6-1.2,1.2-1.2s1.2,0.6,1.2,1.2s-0.6,1.2-1.2,1.2
		S56.1,1023.1,56.1,1022.4z"/>
	<circle class="st6" cx="57.3" cy="1015.7" r="1.2"/>
	<path class="st5" d="M59,1016c0-0.1,0-0.2,0-0.3c0-1-0.8-1.8-1.8-1.8s-1.8,0.8-1.8,1.8c0,0.9,0.7,1.6,1.5,1.7c0.1,0,0.2,0,0.2,0
		C58.2,1017.4,58.9,1016.8,59,1016z M57.3,1014.4c0.7,0,1.2,0.6,1.2,1.2s-0.6,1.2-1.2,1.2s-1.2-0.6-1.2-1.2S56.6,1014.4,57.3,1014.4
		z"/>
	<circle class="st6" cx="61.7" cy="1015.7" r="1.2"/>
	<path class="st5" d="M61.7,1017.4c1,0,1.8-0.8,1.8-1.8s-0.8-1.8-1.8-1.8c-0.1,0-0.3,0-0.4,0.1c-0.8,0.2-1.3,0.9-1.3,1.7
		c0,0.1,0,0.2,0,0.3C60.1,1016.8,60.9,1017.4,61.7,1017.4z M60.5,1015.7c0-0.7,0.6-1.2,1.2-1.2s1.2,0.6,1.2,1.2s-0.6,1.2-1.2,1.2
		S60.5,1016.3,60.5,1015.7z"/>
	<circle class="st6" cx="61.7" cy="1003.1" r="1.2"/>
	<path class="st5" d="M63.5,1003.1L63.5,1003.1c0-1-0.8-1.8-1.7-1.8s-1.8,0.8-1.8,1.8c0,0.8,0.6,1.5,1.3,1.7c0.1,0,0.3,0.1,0.4,0.1
		C62.7,1004.8,63.5,1004,63.5,1003.1z M63,1003.1c0,0.7-0.6,1.2-1.2,1.2s-1.2-0.6-1.2-1.2s0.6-1.2,1.2-1.2S63,1002.4,63,1003.1z"/>
	<circle class="st6" cx="65.8" cy="1003.1" r="1.2"/>
	<path class="st5" d="M65.8,1001.3c-1,0-1.8,0.8-1.8,1.8l0,0c0,0.8,0.6,1.5,1.3,1.7c0.1,0,0.3,0.1,0.4,0.1c1,0,1.8-0.8,1.8-1.8
		S66.8,1001.3,65.8,1001.3z M64.6,1003.1c0-0.7,0.6-1.2,1.2-1.2s1.2,0.6,1.2,1.2s-0.6,1.2-1.2,1.2S64.6,1003.8,64.6,1003.1z"/>
</g>
<g>
	<path d="M25.3,972.9c-0.4-0.2-0.7-0.5-0.9-0.9h-0.9c-0.2,0.4-0.4,0.7-0.8,0.9v2.7H22v1.5h0.8v3.5H22v1.5h0.8v0.3
		c0.5,0.3,0.9,0.9,0.9,1.5c0,1-0.8,1.8-1.8,1.8c-0.7,0-1.3-0.4-1.6-1l0,0l0,0c-0.1-0.2-0.2-0.5-0.2-0.7h-0.9c0,0.6-0.3,1.1-0.7,1.4
		v1h-0.7v1.5h0.7v1.4c0.4,0.3,0.7,0.8,0.7,1.4c0,1-0.8,1.8-1.8,1.8s-1.8-0.8-1.8-1.8c0,0,0,0,0-0.1h-0.3v0.8h-1.1
		c-0.3,0.6-0.9,1.1-1.6,1.1c-1,0-1.8-0.8-1.8-1.8s0.8-1.8,1.8-1.8h0.1v-0.7h-0.8v-3.5h0.8v-1.5h-0.8v-0.9c-0.6-0.2-1.1-0.8-1.1-1.5
		h-0.7v0.7H9.2c-0.3,0.5-0.9,0.9-1.5,0.9c-1,0-1.8-0.8-1.8-1.8s0.8-1.8,1.8-1.8c0.1,0,0.1,0,0.2,0v-0.7H7.1v-3.5h0.8v-0.4
		c-0.1,0-0.1,0-0.2,0c-0.6,0-1-0.3-1.4-0.7H4.7v-0.8H4.4c-0.1,0.5-0.4,1-0.9,1.2v1.8H2.8v1.5h0.7v3.5H2.8v1.5h0.7v3.5H2.8v1.5h0.7
		v3.5H2.8v1.5h0.7v2.8H5v-0.8h3.5v0.8H10v-0.8h3.5v0.8H15v-0.8h3.5v0.8H20v-0.8h3.5v0.8H25v-0.8h0.3v-1.7H26V991h-0.7v-3.5H26V986
		h-0.7v-3.5H26V981h-0.7v-3.5H26V976h-0.7V972.9z"/>
	<path d="M22.7,982.4v-0.3H22h-0.7v0.2c0.2-0.1,0.4-0.1,0.7-0.1C22.2,982.2,22.5,982.2,22.7,982.4z"/>
	<path d="M9.2,981.5h1.2v-0.7V980H9.3c0.1,0.2,0.1,0.4,0.1,0.7C9.4,981,9.3,981.3,9.2,981.5z"/>
	<path d="M6.3,973.7c-0.2-0.3-0.4-0.7-0.4-1.1c0-0.1,0-0.3,0.1-0.4H4.7v0.7v0.8H6.3z"/>
	<path d="M3.5,974.1c-0.2,0.1-0.5,0.2-0.8,0.2c-0.2,0-0.5-0.1-0.7-0.1v1.8h0.8h0.7V974.1z"/>
	<polygon points="3.5,977.5 2.8,977.5 2,977.5 2,981 2.8,981 3.5,981 	"/>
	<path d="M14.5,990.7c0,0.2,0,0.5-0.1,0.7h1.1v-0.8v-0.7h-1.2C14.4,990.1,14.5,990.4,14.5,990.7z"/>
	<polygon points="3.5,982.5 2.8,982.5 2,982.5 2,986 2.8,986 3.5,986 	"/>
	<polygon points="20,994.5 20,995.2 20,996 23.5,996 23.5,995.2 23.5,994.5 	"/>
	<polygon points="25.3,994.5 25,994.5 25,995.2 25,996 26.8,996 26.8,992.8 26.1,992.8 25.3,992.8 	"/>
	<polygon points="25.3,991.3 26.1,991.3 26.8,991.3 26.8,987.8 26.1,987.8 25.3,987.8 	"/>
	<polygon points="25.3,986.3 26.1,986.3 26.8,986.3 26.8,982.8 26.1,982.8 25.3,982.8 	"/>
	<path d="M26,973.1c-0.3,0-0.5-0.1-0.7-0.2v3.4H26h0.8v-3.4C26.6,973,26.3,973.1,26,973.1z"/>
	<polygon points="15,994.5 15,995.2 15,996 18.5,996 18.5,995.2 18.5,994.5 	"/>
	<polygon points="2.8,992.5 2,992.5 2,996 3.5,996 3.5,995.2 3.5,992.5 	"/>
	<polygon points="3.5,987.5 2.8,987.5 2,987.5 2,991 2.8,991 3.5,991 	"/>
	<polygon points="5,994.5 5,995.2 5,996 8.5,996 8.5,995.2 8.5,994.5 	"/>
	<polygon points="10,994.5 10,995.2 10,996 13.5,996 13.5,995.2 13.5,994.5 	"/>
	<polygon points="25.3,981.3 26.1,981.3 26.8,981.3 26.8,977.8 26.1,977.8 25.3,977.8 	"/>
	<path d="M23.6,971.3c0,0.2,0,0.5-0.1,0.7h0.9c-0.1-0.2-0.1-0.4-0.1-0.7s0.1-0.6,0.2-0.8h-1.1C23.6,970.7,23.6,971,23.6,971.3z"/>
	<path d="M20.3,984.7L20.3,984.7L20.3,984.7z"/>
	<circle cx="2.7" cy="972.6" r="1.2"/>
	<path class="st5" d="M3.5,974.1c0.5-0.2,0.8-0.7,0.9-1.2c0-0.1,0-0.2,0-0.3c0-1-0.8-1.8-1.8-1.8S1,971.6,1,972.6
		c0,0.7,0.4,1.3,1.1,1.6c0.2,0.1,0.4,0.1,0.7,0.1C3,974.3,3.3,974.3,3.5,974.1z M4,972.6c0,0.7-0.6,1.2-1.2,1.2s-1.2-0.6-1.2-1.2
		s0.6-1.2,1.2-1.2S4,971.9,4,972.6z"/>
	<circle cx="7.6" cy="972.6" r="1.2"/>
	<path class="st5" d="M6.3,973.7c0.3,0.4,0.8,0.7,1.4,0.7c0.1,0,0.1,0,0.2,0c0.9-0.1,1.5-0.8,1.5-1.7c0-1-0.8-1.8-1.8-1.8
		c-0.8,0-1.5,0.6-1.7,1.3c0,0.1-0.1,0.3-0.1,0.4C5.9,973,6,973.4,6.3,973.7z M8.9,972.6c0,0.7-0.6,1.2-1.2,1.2s-1.2-0.6-1.2-1.2
		s0.6-1.2,1.2-1.2S8.9,971.9,8.9,972.6z"/>
	<circle cx="7.6" cy="980.7" r="1.2"/>
	<path class="st5" d="M5.9,980.7c0,1,0.8,1.8,1.8,1.8c0.7,0,1.2-0.4,1.5-0.9c0.1-0.3,0.2-0.5,0.2-0.8c0-0.2,0-0.5-0.1-0.7
		c-0.2-0.6-0.8-1-1.4-1.1c-0.1,0-0.1,0-0.2,0C6.7,978.9,5.9,979.7,5.9,980.7z M8.9,980.7c0,0.7-0.6,1.2-1.2,1.2s-1.2-0.6-1.2-1.2
		s0.6-1.2,1.2-1.2S8.9,980,8.9,980.7z"/>
	<circle cx="12.8" cy="980.7" r="1.2"/>
	<path class="st5" d="M12.1,982.3c0.2,0.1,0.4,0.1,0.7,0.1s0.6-0.1,0.8-0.2c0.5-0.3,0.9-0.9,0.9-1.5c0-1-0.8-1.8-1.8-1.8
		s-1.8,0.8-1.8,1.8v0.1C11.1,981.5,11.5,982.1,12.1,982.3z M11.5,980.7c0-0.7,0.6-1.2,1.2-1.2s1.2,0.6,1.2,1.2s-0.6,1.2-1.2,1.2
		S11.5,981.4,11.5,980.7z"/>
	<circle cx="12.8" cy="990.7" r="1.2"/>
	<path class="st5" d="M11,990.7c0,1,0.8,1.8,1.8,1.8c0.7,0,1.3-0.4,1.6-1.1c0.1-0.2,0.1-0.4,0.1-0.7s-0.1-0.6-0.2-0.8
		c-0.3-0.5-0.8-0.9-1.4-0.9h-0.1C11.8,988.9,11,989.7,11,990.7z M14,990.7c0,0.7-0.6,1.2-1.2,1.2s-1.2-0.6-1.2-1.2s0.6-1.2,1.2-1.2
		S14,990,14,990.7z"/>
	<circle cx="17.5" cy="990.7" r="1.2"/>
	<path class="st5" d="M17.5,992.4c1,0,1.8-0.8,1.8-1.8c0-0.6-0.3-1.1-0.7-1.4c-0.3-0.2-0.6-0.3-1-0.3c-0.2,0-0.3,0-0.5,0.1
		c-0.7,0.2-1.2,0.8-1.3,1.6c0,0,0,0,0,0.1C15.8,991.6,16.5,992.4,17.5,992.4z M17.5,991.9c-0.7,0-1.2-0.6-1.2-1.2s0.6-1.2,1.2-1.2
		s1.2,0.6,1.2,1.2S18.2,991.9,17.5,991.9z"/>
	<circle cx="17.5" cy="983.9" r="1.2"/>
	<path class="st5" d="M18.5,985.3c0.4-0.3,0.7-0.8,0.7-1.4l0,0c0-1-0.8-1.8-1.8-1.8s-1.8,0.8-1.8,1.8c0,0.8,0.5,1.5,1.3,1.7
		c0.2,0,0.3,0.1,0.5,0.1C17.9,985.7,18.2,985.5,18.5,985.3z M17.5,982.7c0.7,0,1.2,0.6,1.2,1.2s-0.6,1.2-1.2,1.2s-1.2-0.6-1.2-1.2
		S16.8,982.7,17.5,982.7z"/>
	<circle cx="21.9" cy="983.9" r="1.2"/>
	<path class="st5" d="M20.3,984.7c0.3,0.6,0.9,1,1.6,1c1,0,1.8-0.8,1.8-1.8c0-0.7-0.4-1.2-0.9-1.5c-0.2-0.1-0.5-0.2-0.8-0.2
		c-0.2,0-0.5,0-0.7,0.1c-0.6,0.3-1.1,0.9-1.1,1.6l0,0C20.1,984.2,20.2,984.4,20.3,984.7L20.3,984.7z M20.6,983.9
		c0-0.7,0.6-1.2,1.2-1.2s1.2,0.6,1.2,1.2s-0.6,1.2-1.2,1.2S20.6,984.6,20.6,983.9z"/>
	<circle cx="21.9" cy="971.3" r="1.2"/>
	<path class="st5" d="M22.7,972.9c0.4-0.2,0.6-0.5,0.8-0.9c0.1-0.2,0.1-0.4,0.1-0.7s-0.1-0.6-0.2-0.8c-0.3-0.5-0.9-0.9-1.5-0.9
		c-1,0-1.8,0.8-1.8,1.8c0,0.7,0.4,1.4,1.1,1.6c0.2,0.1,0.4,0.1,0.7,0.1C22.2,973.1,22.5,973,22.7,972.9z M21.9,970.1
		c0.7,0,1.2,0.6,1.2,1.2s-0.6,1.2-1.2,1.2s-1.2-0.6-1.2-1.2S21.2,970.1,21.9,970.1z"/>
	<circle cx="26" cy="971.3" r="1.2"/>
	<path class="st5" d="M27.8,971.3c0-1-0.8-1.8-1.8-1.8c-0.7,0-1.2,0.4-1.5,0.9c-0.1,0.2-0.2,0.5-0.2,0.8c0,0.2,0,0.5,0.1,0.7
		c0.2,0.4,0.5,0.8,0.9,0.9c0.2,0.1,0.5,0.2,0.7,0.2c0.3,0,0.6-0.1,0.8-0.2C27.4,972.6,27.8,972,27.8,971.3z M26,972.6
		c-0.7,0-1.2-0.6-1.2-1.2s0.6-1.2,1.2-1.2s1.2,0.6,1.2,1.2S26.7,972.6,26,972.6z"/>
</g>
<g>
	<path class="st6" d="M65.1,972.9c-0.4-0.2-0.7-0.5-0.9-0.9h-0.9c-0.2,0.4-0.4,0.7-0.8,0.9v2.7h-0.8v1.5h0.8v3.5h-0.8v1.5h0.8v0.3
		c0.5,0.3,0.9,0.9,0.9,1.5c0,1-0.8,1.8-1.8,1.8c-0.7,0-1.3-0.4-1.6-1l0,0l0,0c-0.1-0.2-0.2-0.5-0.2-0.7h-0.9c0,0.6-0.3,1.1-0.7,1.4
		v1h-0.7v1.5h0.7v1.4c0.4,0.3,0.7,0.8,0.7,1.4c0,1-0.8,1.8-1.8,1.8s-1.8-0.8-1.8-1.8c0,0,0,0,0-0.1H55v0.8h-1.1
		c-0.3,0.6-0.9,1.1-1.6,1.1c-1,0-1.8-0.8-1.8-1.8s0.8-1.8,1.8-1.8h0.1v-0.7h-0.8v-3.5h0.8v-1.5h-0.8v-0.9c-0.6-0.2-1.1-0.8-1.1-1.5
		h-0.7v0.7H49c-0.3,0.5-0.9,0.9-1.5,0.9c-1,0-1.8-0.8-1.8-1.8s0.8-1.8,1.8-1.8c0.1,0,0.1,0,0.2,0v-0.7h-0.8v-3.5h0.8v-0.4
		c-0.1,0-0.1,0-0.2,0c-0.6,0-1-0.3-1.4-0.7h-1.6v-0.8h-0.3c-0.1,0.5-0.4,1-0.9,1.2v1.8h-0.7v1.5h0.7v3.5h-0.7v1.5h0.7v3.5h-0.7v1.5
		h0.7v3.5h-0.7v1.5h0.7v2.8h1.5v-0.8h3.5v0.8h1.5v-0.8h3.5v0.8h1.5v-0.8h3.5v0.8h1.5v-0.8h3.5v0.8h1.5v-0.8h0.3v-1.7h0.7V991h-0.7
		v-3.5h0.7V986h-0.7v-3.5h0.7V981h-0.7v-3.5h0.7V976h-0.7C65.1,976,65.1,972.9,65.1,972.9z"/>
	<path class="st6" d="M62.5,982.4v-0.3h-0.8H61v0.2c0.2-0.1,0.4-0.1,0.7-0.1C62,982.2,62.3,982.2,62.5,982.4z"/>
	<path class="st6" d="M49,981.5h1.2v-0.7V980h-1.1c0.1,0.2,0.1,0.4,0.1,0.7S49.1,981.3,49,981.5z"/>
	<path class="st6" d="M46.1,973.7c-0.2-0.3-0.4-0.7-0.4-1.1c0-0.1,0-0.3,0.1-0.4h-1.2v0.7v0.8H46.1z"/>
	<path class="st6" d="M43.3,974.1c-0.2,0.1-0.5,0.2-0.8,0.2c-0.2,0-0.5-0.1-0.7-0.1v1.8h0.8h0.7V974.1z"/>
	<polygon class="st6" points="43.3,977.5 42.6,977.5 41.8,977.5 41.8,981 42.6,981 43.3,981 	"/>
	<path class="st6" d="M54.3,990.7c0,0.2,0,0.5-0.1,0.7h1.1v-0.8v-0.7h-1.2C54.3,990.1,54.3,990.4,54.3,990.7z"/>
	<polygon class="st6" points="43.3,982.5 42.6,982.5 41.8,982.5 41.8,986 42.6,986 43.3,986 	"/>
	<polygon class="st6" points="59.8,994.5 59.8,995.2 59.8,996 63.3,996 63.3,995.2 63.3,994.5 	"/>
	<polygon class="st6" points="65.1,994.5 64.8,994.5 64.8,995.2 64.8,996 66.6,996 66.6,992.8 65.9,992.8 65.1,992.8 	"/>
	<polygon class="st6" points="65.1,991.3 65.9,991.3 66.6,991.3 66.6,987.8 65.9,987.8 65.1,987.8 	"/>
	<polygon class="st6" points="65.1,986.3 65.9,986.3 66.6,986.3 66.6,982.8 65.9,982.8 65.1,982.8 	"/>
	<path class="st6" d="M65.8,973.1c-0.3,0-0.5-0.1-0.7-0.2v3.4h0.7h0.8v-3.4C66.4,973,66.1,973.1,65.8,973.1z"/>
	<polygon class="st6" points="54.8,994.5 54.8,995.2 54.8,996 58.3,996 58.3,995.2 58.3,994.5 	"/>
	<polygon class="st6" points="42.6,992.5 41.8,992.5 41.8,996 43.3,996 43.3,995.2 43.3,992.5 	"/>
	<polygon class="st6" points="43.3,987.5 42.6,987.5 41.8,987.5 41.8,991 42.6,991 43.3,991 	"/>
	<polygon class="st6" points="44.8,994.5 44.8,995.2 44.8,996 48.3,996 48.3,995.2 48.3,994.5 	"/>
	<polygon class="st6" points="49.8,994.5 49.8,995.2 49.8,996 53.3,996 53.3,995.2 53.3,994.5 	"/>
	<polygon class="st6" points="65.1,981.3 65.9,981.3 66.6,981.3 66.6,977.8 65.9,977.8 65.1,977.8 	"/>
	<path class="st6" d="M63.5,971.3c0,0.2,0,0.5-0.1,0.7h0.9c-0.1-0.2-0.1-0.4-0.1-0.7s0.1-0.6,0.2-0.8h-1.1
		C63.4,970.7,63.5,971,63.5,971.3z"/>
	<path class="st6" d="M60.1,984.7L60.1,984.7L60.1,984.7z"/>
	<circle class="st6" cx="42.5" cy="972.6" r="1.2"/>
	<path class="st5" d="M43.3,974.1c0.5-0.2,0.8-0.7,0.9-1.2c0-0.1,0-0.2,0-0.3c0-1-0.8-1.8-1.8-1.8s-1.8,0.8-1.8,1.8
		c0,0.7,0.4,1.3,1.1,1.6c0.2,0.1,0.4,0.1,0.7,0.1C42.8,974.3,43.1,974.3,43.3,974.1z M43.8,972.6c0,0.7-0.6,1.2-1.2,1.2
		s-1.2-0.6-1.2-1.2s0.6-1.2,1.2-1.2S43.8,971.9,43.8,972.6z"/>
	<circle class="st6" cx="47.5" cy="972.6" r="1.2"/>
	<path class="st5" d="M46.1,973.7c0.3,0.4,0.8,0.7,1.4,0.7c0.1,0,0.1,0,0.2,0c0.9-0.1,1.5-0.8,1.5-1.7c0-1-0.8-1.8-1.8-1.8
		c-0.8,0-1.5,0.6-1.7,1.3c0,0.1-0.1,0.3-0.1,0.4C45.7,973,45.9,973.4,46.1,973.7z M48.7,972.6c0,0.7-0.6,1.2-1.2,1.2
		s-1.2-0.6-1.2-1.2s0.6-1.2,1.2-1.2S48.7,971.9,48.7,972.6z"/>
	<circle class="st6" cx="47.5" cy="980.7" r="1.2"/>
	<path class="st5" d="M45.7,980.7c0,1,0.8,1.8,1.8,1.8c0.7,0,1.2-0.4,1.5-0.9c0.1-0.3,0.2-0.5,0.2-0.8c0-0.2,0-0.5-0.1-0.7
		c-0.2-0.6-0.8-1-1.4-1.1c-0.1,0-0.1,0-0.2,0C46.5,978.9,45.7,979.7,45.7,980.7z M48.7,980.7c0,0.7-0.6,1.2-1.2,1.2
		s-1.2-0.6-1.2-1.2s0.6-1.2,1.2-1.2S48.7,980,48.7,980.7z"/>
	<circle class="st6" cx="52.6" cy="980.7" r="1.2"/>
	<path class="st5" d="M51.9,982.3c0.2,0.1,0.4,0.1,0.7,0.1s0.6-0.1,0.8-0.2c0.5-0.3,0.9-0.9,0.9-1.5c0-1-0.8-1.8-1.8-1.8
		s-1.8,0.8-1.8,1.8v0.1C50.9,981.5,51.3,982.1,51.9,982.3z M51.3,980.7c0-0.7,0.6-1.2,1.2-1.2s1.2,0.6,1.2,1.2s-0.6,1.2-1.2,1.2
		S51.3,981.4,51.3,980.7z"/>
	<circle class="st6" cx="52.6" cy="990.7" r="1.2"/>
	<path class="st5" d="M50.8,990.7c0,1,0.8,1.8,1.8,1.8c0.7,0,1.3-0.4,1.6-1.1c0.1-0.2,0.1-0.4,0.1-0.7s-0.1-0.6-0.2-0.8
		c-0.3-0.5-0.8-0.9-1.4-0.9h-0.1C51.6,988.9,50.8,989.7,50.8,990.7z M53.8,990.7c0,0.7-0.6,1.2-1.2,1.2s-1.2-0.6-1.2-1.2
		s0.6-1.2,1.2-1.2S53.8,990,53.8,990.7z"/>
	<circle class="st6" cx="57.3" cy="990.7" r="1.2"/>
	<path class="st5" d="M57.3,992.4c1,0,1.8-0.8,1.8-1.8c0-0.6-0.3-1.1-0.7-1.4c-0.3-0.2-0.6-0.3-1-0.3c-0.2,0-0.3,0-0.5,0.1
		c-0.7,0.2-1.2,0.8-1.3,1.6c0,0,0,0,0,0.1C55.6,991.6,56.4,992.4,57.3,992.4z M57.3,991.9c-0.7,0-1.2-0.6-1.2-1.2s0.6-1.2,1.2-1.2
		s1.2,0.6,1.2,1.2S58,991.9,57.3,991.9z"/>
	<circle class="st6" cx="57.3" cy="983.9" r="1.2"/>
	<path class="st5" d="M58.3,985.3c0.4-0.3,0.7-0.8,0.7-1.4l0,0c0-1-0.8-1.8-1.8-1.8s-1.8,0.8-1.8,1.8c0,0.8,0.5,1.5,1.3,1.7
		c0.2,0,0.3,0.1,0.5,0.1C57.7,985.7,58,985.5,58.3,985.3z M57.3,982.7c0.7,0,1.2,0.6,1.2,1.2s-0.6,1.2-1.2,1.2s-1.2-0.6-1.2-1.2
		S56.6,982.7,57.3,982.7z"/>
	<circle class="st6" cx="61.7" cy="983.9" r="1.2"/>
	<path class="st5" d="M60.1,984.7c0.3,0.6,0.9,1,1.6,1c1,0,1.8-0.8,1.8-1.8c0-0.7-0.4-1.2-0.9-1.5c-0.2-0.1-0.5-0.2-0.8-0.2
		c-0.2,0-0.5,0-0.7,0.1c-0.6,0.3-1.1,0.9-1.1,1.6l0,0C60,984.2,60,984.4,60.1,984.7L60.1,984.7z M60.5,983.9c0-0.7,0.6-1.2,1.2-1.2
		s1.2,0.6,1.2,1.2s-0.6,1.2-1.2,1.2S60.5,984.6,60.5,983.9z"/>
	<circle class="st6" cx="61.7" cy="971.3" r="1.2"/>
	<path class="st5" d="M62.5,972.9c0.4-0.2,0.6-0.5,0.8-0.9c0.1-0.2,0.1-0.4,0.1-0.7s-0.1-0.6-0.2-0.8c-0.3-0.5-0.9-0.9-1.5-0.9
		c-1,0-1.8,0.8-1.8,1.8c0,0.7,0.4,1.4,1.1,1.6c0.2,0.1,0.4,0.1,0.7,0.1C62,973.1,62.3,973,62.5,972.9z M61.7,970.1
		c0.7,0,1.2,0.6,1.2,1.2s-0.6,1.2-1.2,1.2s-1.2-0.6-1.2-1.2S61,970.1,61.7,970.1z"/>
	<circle class="st6" cx="65.8" cy="971.3" r="1.2"/>
	<path class="st5" d="M67.6,971.3c0-1-0.8-1.8-1.8-1.8c-0.7,0-1.2,0.4-1.5,0.9c-0.1,0.2-0.2,0.5-0.2,0.8c0,0.2,0,0.5,0.1,0.7
		c0.2,0.4,0.5,0.8,0.9,0.9c0.2,0.1,0.5,0.2,0.7,0.2c0.3,0,0.6-0.1,0.8-0.2C67.2,972.6,67.6,972,67.6,971.3z M65.8,972.6
		c-0.7,0-1.2-0.6-1.2-1.2s0.6-1.2,1.2-1.2s1.2,0.6,1.2,1.2S66.5,972.6,65.8,972.6z"/>
</g>
<g>
	<path id="Path-Copy_00000078029143357433552340000018100807815572504729_" class="st4" d="M65.9,642.3l-8.3-14l0,0l-5.8,8.4
		c-1.9-2.5-2.9-3.8-2.9-3.8c-2.7,4-4.8,6.9-6.1,8.9c-0.1,0.1-0.2,0.3-0.4,0.5"/>
	<circle class="st6" cx="41.9" cy="643" r="1.9"/>
	<circle class="st6" cx="66.5" cy="643" r="1.9"/>
	<circle class="st6" cx="48.6" cy="632.6" r="1.9"/>
	<circle class="st6" cx="52.1" cy="637.2" r="1.9"/>
	<circle class="st6" cx="57.9" cy="628.2" r="1.9"/>
</g>
<g>
	
		<rect id="Rectangle-Copy-25_00000121965643139464090930000004731995270359642012_" x="3" y="1038.5" class="st8" width="5" height="10.6"/>
	
		<rect id="Rectangle-Copy-25_00000073683226803182140230000017793903836198803353_" x="3" y="1050.6" class="st8" width="5" height="8.1"/>
	
		<rect id="Rectangle-Copy-25_00000052807580505180328830000018270190151601800074_" x="11.1" y="1034.1" class="st8" width="5" height="8.4"/>
	
		<rect id="Rectangle-Copy-25_00000005242866289780732470000014096458513667975552_" x="11.1" y="1044" class="st8" width="5" height="10.3"/>
	
		<rect id="Rectangle-Copy-25_00000017482706486598051880000017413964501248054193_" x="19.2" y="1035.3" class="st8" width="5" height="5"/>
	
		<rect id="Rectangle-Copy-25_00000062896827049047591130000007033852472724874168_" x="19.2" y="1041.9" class="st8" width="5" height="16.8"/>
</g>
<g>
	
		<rect id="Rectangle-Copy-25_00000140712019514489161000000013097553986685376672_" x="43.6" y="1038.5" class="st34" width="5" height="10.6"/>
	
		<rect id="Rectangle-Copy-25_00000140728631471690709210000002798598904006916529_" x="43.6" y="1050.6" class="st34" width="5" height="8.1"/>
	
		<rect id="Rectangle-Copy-25_00000021813611374863278490000000210372743828345023_" x="51.7" y="1034.1" class="st34" width="5" height="8.4"/>
	
		<rect id="Rectangle-Copy-25_00000049900186103780238340000015821645720399152541_" x="51.7" y="1044" class="st34" width="5" height="10.3"/>
	
		<rect id="Rectangle-Copy-25_00000057831815852482607610000008728615175612719776_" x="59.8" y="1035.3" class="st34" width="5" height="5"/>
	
		<rect id="Rectangle-Copy-25_00000010302824882032733820000012951761088469067450_" x="59.8" y="1041.9" class="st34" width="5" height="16.8"/>
</g>
<g>
	
		<rect id="Rectangle-Copy-25_00000109006343051770670640000017541423149940315562_" x="3" y="1071.2" class="st30" width="5" height="19.5"/>
	
		<rect id="Rectangle-Copy-25_00000117645672105085371240000001251377066203163013_" x="12" y="1074.9" class="st8" width="2.9" height="10.4"/>
	
		<rect id="Rectangle-Copy-25_00000159464471230094693620000001513849934886941856_" x="4" y="1081.4" class="st8" width="2.9" height="8.2"/>
	
		<rect id="Rectangle-Copy-25_00000178204015006723597300000009811025084517951646_" x="11" y="1066.8" class="st30" width="5" height="19.7"/>
	
		<rect id="Rectangle-Copy-25_00000025440667112918067700000003465987678682434477_" x="20.1" y="1072" class="st8" width="2.9" height="17.6"/>
	
		<rect id="Rectangle-Copy-25_00000061460574700071276510000006646910857419617981_" x="19.1" y="1069.1" class="st30" width="5" height="21.5"/>
</g>
<g>
	
		<rect id="Rectangle-Copy-25_00000120532874665556869800000003594374930147699845_" x="43.6" y="1071.2" class="st31" width="5" height="19.5"/>
	
		<rect id="Rectangle-Copy-25_00000061446267700595456180000015952990509953293726_" x="52.7" y="1074.9" class="st34" width="2.9" height="10.4"/>
	
		<rect id="Rectangle-Copy-25_00000173854124051991699260000008035281924965878431_" x="44.7" y="1081.4" class="st34" width="2.9" height="8.2"/>
	
		<rect id="Rectangle-Copy-25_00000090972886484889203870000009225203648243665066_" x="51.6" y="1066.8" class="st31" width="5" height="19.7"/>
	
		<rect id="Rectangle-Copy-25_00000070811201716204706360000012564757851205226927_" x="60.8" y="1072" class="st34" width="2.9" height="17.6"/>
	
		<rect id="Rectangle-Copy-25_00000170972525365469286220000004922106320971505301_" x="59.7" y="1069.1" class="st31" width="5" height="21.5"/>
</g>
<path id="Path-Copy_00000000903780810480303440000011794073789813552570_" class="st0" d="M24.9,1134.1l-5.2,8.1l-4.1-3l-3.1,6.2
	l-3.7-3.2l-5.3,6.8"/>
<path id="Path-Copy_00000033342144951376970560000006659573104360364204_" class="st9" d="M64.9,1134.1l-5.2,8.1l-4.1-3l-3.1,6.2
	l-3.7-3.2l-5.3,6.8"/>
</svg>
